/* XPM */
static char *result[] = {
/* columns rows colors chars-per-pixel */
"60 60 94 2 ",
"   c #000100",
".  c #060A03",
"X  c #090D05",
"o  c #0A070D",
"O  c #0B0C0B",
"+  c #110B0D",
"@  c #0B1406",
"#  c #0D1907",
"$  c #0D130B",
"%  c #0E1B08",
"&  c #101907",
"*  c #10160E",
"=  c #18150E",
"-  c #111D0B",
";  c #1A1C0D",
":  c #0F0E11",
">  c #130E11",
",  c #0F1210",
"<  c #121311",
"1  c #1B1412",
"2  c #131C10",
"3  c #201D0F",
"4  c #251514",
"5  c #281417",
"6  c #271817",
"7  c #291D15",
"8  c #2C1718",
"9  c #2C1C19",
"0  c #331B1C",
"q  c #3B1C1D",
"w  c #13230B",
"e  c #1A240E",
"r  c #162A0D",
"t  c #192D0F",
"y  c #19310F",
"u  c #162412",
"i  c #1F2710",
"p  c #172910",
"a  c #1B2D11",
"s  c #1C3311",
"d  c #1E3913",
"f  c #222512",
"g  c #2C2615",
"h  c #232B14",
"j  c #2C2D16",
"k  c #2D2418",
"l  c #2E2C1B",
"z  c #302515",
"x  c #312B17",
"c  c #33241B",
"v  c #38241F",
"b  c #342C1A",
"n  c #3C2C1D",
"m  c #233214",
"M  c #2A3316",
"N  c #223C15",
"B  c #293817",
"V  c #2C321A",
"C  c #2F3B19",
"Z  c #313117",
"A  c #33321A",
"S  c #3C321D",
"D  c #313C1B",
"F  c #3D2321",
"G  c #3F2E20",
"H  c #43211F",
"J  c #48271E",
"K  c #422C1D",
"L  c #492A1F",
"P  c #44321F",
"I  c #432522",
"U  c #4A2522",
"Y  c #4B2B22",
"T  c #542B23",
"R  c #582D26",
"E  c #5A2F28",
"W  c #4A3120",
"Q  c #5C3127",
"!  c #5D322A",
"~  c #5F382B",
"^  c #62352D",
"/  c #6C3E2F",
"(  c #663930",
")  c #6A3C31",
"_  c #234216",
"`  c #734133",
"'  c #794735",
"]  c #7E4A36",
"[  c #814C37",
"{  c #844E38",
"}  c #865038",
"|  c #8A533A",
" . c #91573B",
".. c #92583C",
/* pixels */
"                                                                                                                        ",
"                                                                .                                                       ",
"                                                . o .     . . $ u $                                                     ",
"                                . . . . $ : O $ u u * O O * * 2 a , O . O O O O O O O O .                               ",
"                          . @ $ 2 2 $ * u w % w r a w . # w % # # w ; 2 * # % a a p u 2 O                               ",
"                        O * u p r r w t s % @ r r # p # X @ # X . w @ w %   . @ y y s u O . .                           ",
"                        O $ 2 w w % . w d a w y d y s s w % y @ . r @ - r @ # - d s r - * 2 u O .                       ",
"                      . , 2 r w t w # # s _ r # s s b C s a s s r r # w h s &   r w .   X w s p - $ $ $ .               ",
"                . o O - w w w a t @ . X r t . # y N L A % . . # d t y x J S r . w w X   . w t t s u s u 2               ",
"              . $ 2 - r a # @ s r .   . - t y d a V L V % . .   . X r m l n n z y t @ @ r d y # @ w d u $ .             ",
"          O $ % r r a t y s M n j w & % w t d d h F b h t t w . . X t r a V A N N r @ . @ w t w . p a u $               ",
"          % , r r y y t _ d p ; c S - X w w % d a a s t # # r % r r % # & * @ @ r N w   . . % w p a a u $ .             ",
"          $ < r w w s _ y @ . @ @ w @ w r # % y N @ - t w # # @ t w @ @ # w # & @ % @ X r r . @ # # r s p , .           ",
"          . $ 2 w w s _ % # p r @ . r N % . % y y X   w r % . . - y t y y r w # % - @ X w m e @ . w r r w 2 O           ",
"          . $ 2 r y s d d y w % # % t t % . . % y w - # w N d # X y r % w - - @ # t - @ e Z P a @ s a r X O o .         ",
"        . * 2 w r y s y % . @ a w @ t y w . . @ s d y . - N _ r . r t # . # d y y w r w h m M d X . @ r t p , .         ",
"        O 2 w w r y d d w w w . @ w w w r # @ r w X . O g n M #   . r _ m h d w X w d s t t t y @ @ # # r p & 2 $ .     ",
"      . O $ r w X w # w M h r @ e t .   . % r s w w f n b h ; # .   . % m M A n n m r X @ w y y w t # . @ @ X w 2 $     ",
"      . O * r % @ @ @ r h h s B n x & @ # # w s s h l c i y a r .   X w t t l Z N d r . . . - w @ . w t w a # O 2 < .   ",
"      O 2 w w w w % r t r s s w ; c S e X # r # a a i a r w @ r w w t w @ @ & @ @ % d w   . . # r & r s # ; * O O .     ",
"      o , 2 $ - r r y y r r @ . @ - & # w w @ @ y s # @ r r % @ X t w % # & w # # . @ . X r r * b x ; w - * o .         ",
"          . . o * w r r w # @ w w @ . w s w . . y y %   - y % . . w y t y y y w @ @ @ . . @ d M K t % - w . . >         ",
"              . , w w r w w r w - @ # r y w . . w r t w - w d d @ . r y w # & - . . - @ . - Z K ; r w @ . . $ *         ",
"            O , w w r r t % . @ r w @ w s r @   . y s y @ X m _ r   w r w . @ y w w - w r r h h w r . . # * @           ",
"            $ * r r - # r r w w . . r w - r - . y % . . . ; K A - .   % d h 3 t # . @ t s a r w w j - - ; $ .           ",
"          $ $ - r d w @ w a s t @ w % w % X @ w w # % r r w f k s # % s A b e @ r w . w r a w r N L A w u $             ",
"          2 < t r & s r . @ t j j s t s _ y & . . % % # r % X w @ . X ; g g w # # @   w @ . . # b n B d p # O           ",
"      . $ % u r . . a S j % # h n K N N s N r @ r % # . . @ w y # .   . . w r .     . % w w . X t d y y w ; o .         ",
"      o , w a r @ w h b e w w w e n C _ r @ w y d r w - @ . . - a @ . . @ w - . # w s X * j j e j A B w X - * .         ",
"      . . * * t t w a t @ . @ % . m V m w # r r y @ . w s r . . s s w % e j b r y s s @ # V n S n Y A f w 2 O           ",
"          $ , r t d d s y w # # % t h *   - # X r .   @ y _ t w t r . X s S P N d # @ % w s - w r V G n C u o           ",
"          . $ 2 t @ @ # t y y w t r t # X w r i t r w @ r N t @ @ t w i b x M d N w . . - w w . # f h r r u < O         ",
"            O < s - .   @ w t r % r r t t y i n l N -   w w .     @ r h h s y t w & - w @ @ s w # w X   . # w <         ",
"          $ $ w t r @   # w r t w # r % w r @ O h t - w s t # w 7 r r t d Z n @ . @ y w # w t t w r @ . X w u : .       ",
"        . $ , w r . % X % # . w h b m t s _ s w . X - w - e t @ w w . @ e g g r % % @   @ r . . @ y r % # u p $         ",
"        O 2 w r r w % w y # . % i b K V d d s s @ w r @ . . & r t w .   . # - a @ .   . - r w . . . # # @ $ X           ",
"          . $ - r p a r r w % r # - n D _ a # w y s t w w - X @ e s # . @ w w r . @ & d w X m s . @ . . - O             ",
"            . O $ w r w w r r @ # . a V M % # w t y # . - y t # X y t w w r M n e t s d w & m e w w @ @ u O .           ",
"                . $ % p % % r % % # r a w   @ w . w #   @ r N y r y y # . i A W N d w t y w @ @ t r @ w u , .           ",
"                  . @ w r w r y w r r r w . # r i t t r # & N y # X w t f b A M N d & - s w   . a X . % u O .           ",
"                . $ * w r % w r t w w w r y s a n b B -   @ y & .   & r s m s y t w r . # s w % t X % 2 *               ",
"                  . $ - w t r w w w r w X @ w w M b K m # # r r X . w t t % w t . . w % w a # X w w 2 # .               ",
"                    . O , 2 % 2 $ 2 w r w X . . t % = e w - r # . & r t t @ . r # # w t a s r # p < O                   ",
"                        .   . .   O $ $ w w $ @ # X   . @ w t #     ; w w % $ w 2 2 $ < % p a - * X                     ",
"                                      . X O O O % a w .   X f e + 7 T Z - # $ O .   .   O O $ .                         ",
"                                                O $ a # . 4 L L J R / v $ .                                             ",
"                                                    $ 2 8 T T T ^ ' | H $                                               ",
"                                                      $ 0 T T E / [ | n O                                               ",
"                                                      $ 0 T R ( ^ ) } F $                                               ",
"                                                      $ 8 T R ( ) [ [ F $                                               ",
"                                                  . $ 6 H T R ^ ) | ` q $                                               ",
"                                                  . $ q R T R R ^ ] { ) 0 $                                             ",
"                                                  . , q T R ( ! ^ ' | | I , .                                           ",
"                                                  . : q T R ^ ( ) [ | ..R O .                                           ",
"                                                  O 9 U T T R ! ! ( {  ./ 9 o o + .                                     ",
"                                          . $ 4 5 H T T T ! ^ ! ^ ^ {  .' Q I I F < X                                   ",
"                                          $ > 5 5 8 Y ! ^ ! E T T ) / ` } ` 8 $ O O .                                   ",
"                                                  O < I E ! R I 1 1 q H I ! ~ k O                                       ",
"                                                . O 5 Y I 9 9 O .   . O . 1 v v < .                                     ",
"                                                  o > 1 O . .             .   . .                                       "
};
