/* XPM */
static char *result[] = {
/* columns rows colors chars-per-pixel */
"60 60 229 2 ",
"   c #010101",
".  c #1C1B1C",
"X  c #1B221F",
"o  c #022D26",
"O  c #052F28",
"+  c #1E2D2B",
"@  c #04332A",
"#  c #05332B",
"$  c #0A352D",
"%  c #0A3A2F",
"&  c #0B3C31",
"*  c #113731",
"=  c #113C34",
"-  c #242324",
";  c #242B29",
":  c #2B2B2B",
">  c #302E2F",
",  c #22312E",
"<  c #312F30",
"1  c #293835",
"2  c #333232",
"3  c #383737",
"4  c #3C3B3B",
"5  c #403E3F",
"6  c #0F4136",
"7  c #114136",
"8  c #16463A",
"9  c #1B473F",
"0  c #164A3E",
"q  c #1A4B3D",
"w  c #24463C",
"e  c #2A4439",
"r  c #34463E",
"t  c #1C4D41",
"y  c #1F5042",
"u  c #254D43",
"i  c #3B4B45",
"p  c #235444",
"a  c #275847",
"s  c #285648",
"d  c #26594A",
"f  c #2A5B4B",
"g  c #395B4D",
"h  c #2E5F51",
"j  c #3C5C53",
"k  c #2E604F",
"l  c #2E6152",
"z  c #336453",
"x  c #3A6456",
"c  c #366956",
"v  c #366A59",
"b  c #3B6C5B",
"n  c #3E715E",
"m  c #3E7261",
"M  c #434243",
"N  c #434A47",
"B  c #464C4B",
"V  c #4B4B4B",
"C  c #44564A",
"Z  c #525C4D",
"A  c #435D54",
"S  c #4B5955",
"D  c #525454",
"F  c #575958",
"G  c #5C5C5C",
"H  c #486558",
"J  c #426C5D",
"K  c #53645C",
"L  c #45705F",
"P  c #636556",
"I  c #756C5D",
"U  c #596A65",
"Y  c #437463",
"T  c #497161",
"R  c #457A66",
"E  c #4B7967",
"W  c #467C69",
"Q  c #4A7D6A",
"!  c #507369",
"~  c #587668",
"^  c #646564",
"/  c #676968",
"(  c #6C6C6C",
")  c #7F6F60",
"_  c #687767",
"`  c #737767",
"'  c #7D7263",
"]  c #667A71",
"[  c #747575",
"{  c #747C78",
"}  c #7B7A7B",
"|  c #847565",
" . c #84776E",
".. c #877968",
"X. c #8B7C6B",
"o. c #4D826D",
"O. c #56816F",
"+. c #4E8571",
"@. c #528571",
"#. c #5B8475",
"$. c #558B75",
"%. c #5C8876",
"&. c #568E78",
"*. c #598E79",
"=. c #5C937C",
"-. c #5B957D",
";. c #68816E",
":. c #78816F",
">. c #628276",
",. c #678776",
"<. c #6C857B",
"1. c #638C7B",
"2. c #6B8C7C",
"3. c #768775",
"4. c #64947D",
"5. c #6B927C",
"6. c #86816F",
"7. c #838471",
"8. c #5F9581",
"9. c #5F9980",
"0. c #6C8D82",
"q. c #7A8983",
"w. c #629681",
"e. c #6B9384",
"r. c #629A82",
"t. c #6B9B86",
"y. c #6C9D89",
"u. c #739284",
"i. c #749488",
"p. c #7B938A",
"a. c #739B8C",
"s. c #7B9A8D",
"d. c #7A9D91",
"f. c #6AA38A",
"g. c #6BA38B",
"h. c #72A38E",
"j. c #7FA08F",
"k. c #6FAB90",
"l. c #74A590",
"z. c #73AC93",
"x. c #7BA995",
"c. c #75B095",
"v. c #78B298",
"b. c #7AB49A",
"n. c #7DBB9E",
"m. c #7FBCA0",
"M. c #838383",
"N. c #878888",
"B. c #8B8C8C",
"V. c #82978C",
"C. c #919782",
"Z. c #889A95",
"A. c #939795",
"S. c #86A798",
"D. c #91A995",
"F. c #90A69F",
"G. c #9BA59B",
"H. c #82B39D",
"J. c #97A8A3",
"K. c #94AEA4",
"L. c #85B5A1",
"P. c #8DB4A3",
"I. c #83BDA3",
"U. c #89BDA5",
"Y. c #91B6A6",
"T. c #96B0A8",
"R. c #99B7AB",
"E. c #A4A3A3",
"W. c #A8A7A8",
"Q. c #ACACAC",
"!. c #B0AFAF",
"~. c #A7B2AD",
"^. c #BAB7A9",
"/. c #A6BBB4",
"(. c #B6B7B7",
"). c #C8BAB3",
"_. c #85C1A6",
"`. c #87C3A8",
"'. c #8AC5AA",
"]. c #8DCBAE",
"[. c #96C6AB",
"{. c #8FCEB0",
"}. c #9CC3B2",
"|. c #93CCB1",
" X c #9ACAB4",
".X c #95D4B6",
"XX c #9BD3B6",
"oX c #9DD5BA",
"OX c #9DDCBD",
"+X c #A6C0AD",
"@X c #A7C4B7",
"#X c #ABC9BC",
"$X c #B3C4BB",
"%X c #A5D4BD",
"&X c #A2D9BE",
"*X c #9EE0BF",
"=X c #B4C9C1",
"-X c #AADAC3",
";X c #B6D5C7",
":X c #9EE1C0",
">X c #A2E2C2",
",X c #ABE2C7",
"<X c #B8E1CD",
"1X c #BEE5D2",
"2X c #C7C6C4",
"3X c #C5D5CD",
"4X c #D4D3CA",
"5X c #CDDBD6",
"6X c #CCDDD6",
"7X c #D4D4D4",
"8X c #D8DBD7",
"9X c #DCDCDB",
"0X c #E0DDDB",
"qX c #CBE7D9",
"wX c #D3E2DB",
"eX c #D8E5DF",
"rX c #CDF0DE",
"tX c #E0DFE0",
"yX c #D8EAE2",
"uX c #CFF0E0",
"iX c #D8F2E5",
"pX c #E2E6E5",
"aX c #E2E9E6",
"sX c #E4EBE8",
"dX c #EBEDEC",
"fX c #ECF1EF",
"gX c #EDF5F1",
"hX c #F4F4F4",
"jX c #FBF9FA",
/* pixels */
"                                                                                                                        ",
"  2 B.W.W.Q.E.p.~ A i i 5 4 3 3 3 2 : : : : - - - - - : : : : : : : : : : : : : : < 3 3 3 4 M 5 M N N g H #.V.Q.W.E.W.E.",
"  V 7XhXuXuXrXXXx.i.{ [ { <.>.] ~ ] 2.u.2.p.G.A.u.2.] H i r r i i g U 2.u.s.G.J.V.a.V.a.<.<.2.u.q.q.M.q.j.U.-XuXuXiXgXjX",
"  V 7XiX>X.X[.S.i.{ } [ { 2.2.,.1.,.j.U.].}.=XR.z.n.'.S.u.0.<.] 5.s.P.|.n.b./.$X%X].b.h.e.e.u.a.i.q. .M.q.j.H. XoX,XiXjX",
"  V 3XuX&XK.B.[ U V B B B B B B D F D U e.+.8 O % m b.3XsXsXtXtXaXsX;Xl.z 6 # q =.$.8 9 D D B B B B B B F U } A.Y.,XuXfX",
"  1 S.].b.S.M.A * % $ $ $ $ $ = Q f.Y u f d u 9 0 u v g.b.! h z *.L.w.h q q q q a a y Y y.m $ $ $ $ $ % $ = A B.F.U.|.oX",
"  ; %.z.x.p.q.E./.L.g.8.8.*.x y @.U.=X/.l.$.b z b o.l.=X;X#.h z i.3X#X4.o.c z L &.x.$X=XL.W t m 8.*.a././.z.i.} s.b.z.l.",
"  ; ] S.H.<.( /.rX-X`.r.8.8.W x R y.=X-Xx.*.$.Y z b *./.#X#.f f 5.#X[.$.b k b o.f.[.;X@Xw.Y z o.8.8.z.;X1X>XS.( i.x.2.U ",
"  - ( V.y.! S a.|.m.l.a.e.*.@.Q R o.4.-.n n o.n f p f o.&.c p a n -.o.q a k z b R &.r.=.Q W o.$.*.i.a.l.m.{.0.i ! w.U F ",
"  - G ~ Y h f 8.b.y.H.wXuX&Xn.=.&.$.R c a a q c b m n k a c Y Y n w k n L c z q p f b R &.&.r.H.-XiX5Xx.g.b.W = t j S V ",
"  + G { 8.R Y y.v.y.z.oX&XU.r.T z a q k c R &.n f Y $.c f o.4.=.o.q n $.n a o.@.Y z a a a x W g.'.&X{.g.g.b.8.x J Y B 4 ",
"  . D <.h.$.m *.y.r.r.k.f.$.b f f n f.c.4.o.v q & v &.c f o.r.r.o.q n =.k 6 q b O.f.v.4.b a f Y &.f.k.r.8.y.Q b Q ~ N > ",
"  2 A.=X;X=XR.x.f.9.=.@.Y h f h f J v.'.4.o.n y @ c &.c f o.4.r.R a n $.d % d m o.f.'.g.c k k f z R $.8.9.g.x.R.#XT.D - ",
"  M 2XhXjXpX3X;X}.v.=.b f f h z a f =.f.Y R 4.n 8 c &.c f o.f.-.R a n &.k 0 o.4.n Q g.$.a f z f s h Y w.L. X;X5XdX7X/ - ",
"  > B.7XdXK.~ @XyX}.8.f f J v a p f W o.k n f.+.k n &.c k o.-.f.o.p n &.v k -.f.c z @.R a w f b b p z r.=XyXT.] $X8X( - ",
"  2 A.7XdXJ.Q h.H.*.v s c $.=.&.W c f p q c -.o.a n &.z k +.4.-.R f n &.v a o.&.k w a f b o.&.-.+.t = b 8.L.w.Q $X9X[ < ",
"  : } T./.y.Y W W z f z W =.&.E c a q q % q Y k 7 c &.c k o.4.-.R a n $.k 8 c n 8 % q w a c o.*.=.b s d Y r.@.Y h.F.U 3 ",
"  X U e.v.l.8.Q z q q R o.Y W o.E Y Y b k q k q # c -.Y c +.-.f.o.c o.$.k # q k p f n R Y o.@.R Y o.Y q s Q *.w.g.t.K r ",
"  X S e.z.z.y.Q k q a E b q k o.$.$.o.o.L k q % @ d o.Y Y $.-.-.O.Y Y o.q @ % 0 k b o.o.o.+.R d q Y m t q z @.g.z.y.L i ",
"  : [ 0.8.Q b s w z c q q % 8 p q q a q q q % @ @ 6 q L %.f.h.k.-.o.z q 6 @ @ @ @ 6 q a p p p 7 % q f x h t f Y o.O.S M ",
"  > [ U 8 s v t % q w q a z b b L n J n b z q q 9 & 9 F.pXdXqX%X.X{.o.6 7 q q q k b b b b b b v z p q p 7 # p v p = 1 3 ",
"  : [ K % y v 8 o @ @ % 7 p p p w q q a q q 6 q Q r.g.w.,.e.e.Q R R -.k.4.R q % q p p y p p p p q 6 @ # @ @ y v t o , 2 ",
"  : ( K % t m m m m o.o.t.F.D.D.Y.D.F.F.F.j.&.f._.OXXXo.h s.Z.b q 7 &.OX{.k.=.=.x.F.D.J.F.F.F.F.D.S.e.Q m m Y b t O , 3 ",
"  ; / H $ t R r.n.v.n.].#X4XeXwXeXwXwXwX0X4X+X[.[.XX'.W x R./.O.q % R ]._.b.U.$X4X9X8XwXwXwXwXwX8X0X2XK.S.S.2.b 0 $ , 3 ",
"  ; / S = u Y &.-.f.4.4.3.6.:.5.4.4.-.5.6.X.X.X.X.C.z.Y s z z p & # m b.k.e.:.X.6.7.4.r.r.r.r.r.5.7.X.X.X.X.` b t O , 2 ",
"  - ^ / V j Y $.-.4.4.6.X.X.| 6.5.-.-.4.4.3.X.7.4.z.z.R q & # @ o @ m c.k.8.4.4.4.4.-.-.-.4.=.=.=.4.4.4.3...` b 0 @ , 2 ",
"  - ^ / D S m R E c z g C C C g c c k z z z A g c Y $.w.w.8.=.*.8.8.*.@.m c z z z c c z c z z z z z c l J ~ T b q O + 2 ",
"  - G ^ D A m j a 8 % % % % 6 6 % 7 6 % % % % $ % 8 p Q y.z.c.z.l.r.Y t & & % % % % % % % % % & & & % % 8 f c b t @ + 2 ",
"  - G ^ D H m h q q 7 7 7 7 7 7 7 7 7 7 7 7 7 7 7 $ % q z @.r.9.o.l 0 % % 7 7 7 7 7 7 7 7 7 7 7 7 7 & 6 8 a z v q @ ; : ",
"  - F G B j Y Y Y Y Y Y Y Y Y Y L T T L L L L T L x p $ 6 W r.r.m & & d c Y L T T L T T T Y Y Y Y Y Y Y L Y Y b q O + 2 ",
"  . V i * u Y @.=.=.-.-.=.=.-.=.:.| | | | | | | | ..I e 6 W r.r.b & d $.-.4.` ..| | | | | ;.=.=.=.=.=.=.=.=.@.b 0 O + > ",
"  . 5 1 o t Y &.$.c q q q q q q w e e e e e e e r P | r 6 R r.r.n & f =.n q w e e e e e e 9 t t t t t y v &.$.J 0 O + > ",
"  . V S g j Y &.+.0 o # & & % % & & % & % & & @ @ x _ u 6 n -.-.n 6 k $.k o @ 6 6 @ 6 6 @ 6 @ 6 % % # o w ;.;.n 0 O , > ",
"  - / } [ U Y $.+.q % u f f s f s f d d f d s 8 # v $.a 6 o.f.-.n 6 k %.a @ q a a a k a a a f q a k q % r | ` J 0 O , 2 ",
"  > M.B.( U Y &.+.0 & z Y Y Y Y Y Y Y Y Y Y b p # v $.p 6 n -.f.b % N | i 6 a c L Y Y L Y L o.L Y n k @ r ) ` b 0 O , 2 ",
"  > M.M.F A Y &.+.q & v Q *.=.=.=.8.=.=.-.$.Y p % v $.p 6 o.f.4.n 7 i ) r 6 a o.&.4.-.-.-.=.-.-.$.R k 6 r | ` b 0 O , 2 ",
"  < M.M.D A Y $.$.f a Q $.Q w.b.'.{.I.g.$.o.$.c y m &.z q o.f.-.Y q Z | Z q o.o.o.&.z._.]._.c.=.o.$.o.q C | ` b 0 # , 2 ",
"  2 M.M.D A Y %.$.f z &.@.c z Y o.+.W m k n -.R a L ;.x k o.-.4.o.a H ;.H a o.$.b z n W @.o.n z c $.o.k A ;.] J q O ; : ",
"  3 N.M.D A Y $.$.c v &.R t & & @ o # & 7 k $.o.h P | Z z O.5.4.o.k n &.o.k o.o.a = 6 @ o @ 6 6 q $.o.k z &.$.b q O + : ",
"  : M.M.G A Y $.=.R R $.b = s Y f t v x 8 p o.@.L _ | ~ T | 6.5.Y q n -.o.n @.o.q q b z 8 k n q 8 Y o.k c =.$.b 0 O + : ",
"  - / } ( U Y $.=.R c f f x $.z._.'.n.f.Y l f k L O.1.o.E ' 6.5.o.k n =.o.b k f z Q g.I.'._.z.+.z f f c Q =.$.b 9 # , 4 ",
"  > N.A.,.E Y $.=.R Y Q $.&.m z f.H.o.k o.&.o.R Y o.=.W T ' 6.5.R q n *.Y k n +.&.Q l $.I.&.h Y &.@.Y k n *.$.L m Y D V ",
"  > M.Y.n.&.Y @.=.R R 4.=.Y p 8 L +.a 8 z o.-.$.Y +.=.o.T ;.5.4.o.z R &.c f o.-.Q k 8 l $.z 7 f R =.$.c J &.o.Y r.b.U V ",
"  - ( R.;X'.r.=.*.R W *.o.f q q f z q 8 p b &.o.b o.&.o.E &.r.4.o.b o.=.c a o.&.z w 0 p z d q t z @.&.R o.=.-.r. X-X} V ",
"  - ( (.eX1X].k.*.E R =.&.Y p # 7 8 % 6 c o.-.n a Y -.o.Y $.4.-.o.k n &.b f o.-.Q h $ % 9 & # f Q =.&.Y W =.c.|.qX7XM.D ",
"  : ( V.a.Q z o.*.W R *.r.*.l # O # o 8 o.-.-.o.a n &.o.R $.-.f.o.L o.-.o.L @.-.8.m & o @ o % m 4.-.&.Y Q =.W c @.e.U D ",
"  : ( ] x f c @.=.R R *.r.r.Q l f f f c $.-.4.Y k Y =.o.R $.-.4.$.Y o.=.n l o.r.r.+.z h h f l +.r.r.&.Y Q =.o.z l g N N ",
"  ; ( K 8 a Y *.*.W R *.=.+.+.@.@.@.@.$.o.&.=.o.q H ;.~ R -.5.:.;.L o.=.Y c o.r.r.=.@.@.@.+.@.=.4.$.E Y o.=.$.n y * 1 5 ",
"  : ( A % t b $.=.R R *.$.Q @.-.-.-.-.&.o.o.=.R k P | P R &.5.X.I Y o.=.o.L $.=.&.$.$.&.9.9.w.4.=.o.Y Y Q =.@.b f u 5 5 ",
"  : ( U u x Q 8.=.R W w.f.y.f.h.h.h.h.h.h.h.f.$.L _ | ~ R &.5.6.` L o.1.o.E -.4.*.~ ~ 8.g.l.h.g.r.f.=.Y Q =.$.@.p.B.^ V ",
"  - ( W.7XsXeXT.*.Y $.`..XoX<XaXdXsXsXsXsXqXoXk.E I ..U R &.5.6.` T _ | _ o.b.>XwXpXyXaXsXdXyX-X.XOXm.o.Q =.b.XXqX7X} M ",
"  : M.W.!.;X<XL.=.&.8.l.c.c.b.P.P.Y.P.P.P.D.C.6.` :.,.W Y $.4.5.O.L _ | | ` 5.c.H.P.P.P.P.P.P.H.c.z.f.=.&.=.m.OX|.d.G 5 ",
"  : [ W.(.R.m.m.c.*.+.+.R m a.@Xh.+.f._.@X$X).).)./.b.$.Y &.r.r.$.Y 2.D.^.).$X#X#X#X$X}.n.r.o.m Q k.z.&.8.b.m.I.}.K.U 5 ",
"  . G Q.fX@Xw.|.-Xr.b z b ! J.=Xd.@.c.XX;XwX6XwX6X-X_.&.Y $.=.=.o.Y 4.].;X3X6XwX5X5X6X;X'.f.Y f z f.g.o.h.-XU.r.;XtX} 4 ",
"  . G !.sXT.Q =XsXR.*.J s.wX/.@.*.y.f.f.h.l.h.h.l.l.a.1.%.t.l.h.w.%.4.h.l.h.h.h.h.h.f.f.f.f.r.&.R z n w.#XsXR.~ (.tXM.M ",
"  : } 2XsXZ.x /.hXfXsXpXqX-XOX.X.X.X.X-XwXsXsXsXsXsXsXyXpXaXsXiXaXpXaXsXsXsXsXsXaXqX&X.X.X.X.X.X.X{.-XwXhXfXF.x T.pXW.M.",
"  ; } 2XsXp.8 T d.p.d.P.L.c.z.z.z.z.z.c.H.Y.Y.H.Y.U.Y.Y.Y.Y.Y.P.Y.P.Y.P.P.P.P.P.P.L.c.z.k.k.z.z.c.c.x.s.d.a.x t J.pX!.N.",
"  3 E.9XsXd.t = t t l m W W r.b._.v.=.R W &.c.H.b.4.o.R R Q o.W R o.W o.f.b.n.k.$.R o.r.n._.v.=.W W n k q 8 0 v /.dX7X(.",
"  4 Q.tXpX(.i.Y z m +.*.&.8.m.oXXXH.t.#.$.k.oX>XOXn.=.#.#.>.>.#.#.1.$.4._.>X>X{.g.R z $.`.OXoXc.*.=.&.R b c *.Y.5XdX9X2X",
"  - / Q.tXdXpX<XOXOXOXOXOX*XoX.Xf.%.Z.~.%X*XOXOX&X*XOX/.W.Q.Q.!.!.!.@XOX:X:X>X-X>Xg.0 p 8.`.OX:XOX*XOX*XOXOXqXhXhX9XE.N."
};
