/* XPM */
static char *_646147455649[] = {
/* columns rows colors chars-per-pixel */
"60 60 238 2 ",
"   c #0C0C0B",
".  c #130819",
"X  c #1C1A19",
"o  c #22221B",
"O  c #28271D",
"+  c #190928",
"@  c #2F1436",
"#  c #2B2821",
"$  c #3A3828",
"%  c #362934",
"&  c #3C343C",
"*  c #492E3B",
"=  c #49373A",
"-  c #4F4936",
";  c #5A553B",
":  c #63623F",
">  c #360948",
",  c #3D3541",
"<  c #46085A",
"1  c #471756",
"2  c #483A4A",
"3  c #52344D",
"4  c #4B2655",
"5  c #4C3556",
"6  c #53395C",
"7  c #4C0664",
"8  c #530A6A",
"9  c #561869",
"0  c #590773",
"q  c #5B0A73",
"w  c #5E1873",
"e  c #610F6E",
"r  c #64097C",
"t  c #65167A",
"y  c #572666",
"u  c #5C3869",
"i  c #5E2673",
"p  c #5F3071",
"a  c #61366D",
"s  c #66277B",
"d  c #683878",
"f  c #4B4449",
"g  c #59484A",
"h  c #564F50",
"j  c #565655",
"k  c #5A545B",
"l  c #675749",
"z  c #624853",
"x  c #68555B",
"c  c #7A6A4C",
"v  c #68685C",
"b  c #746E51",
"n  c #5D4964",
"m  c #5E5561",
"M  c #624B6A",
"N  c #66596A",
"B  c #6A4776",
"V  c #704F7C",
"C  c #6B5575",
"Z  c #6C5C73",
"A  c #72597A",
"S  c #696669",
"D  c #756B6C",
"F  c #6E6173",
"G  c #756878",
"H  c #757476",
"J  c #7C7B7B",
"K  c #867755",
"L  c #927F54",
"P  c #846E6E",
"I  c #7F807E",
"U  c #8B8456",
"Y  c #95875B",
"T  c #99945E",
"R  c #928C68",
"E  c #9B9564",
"W  c #8D8B74",
"Q  c #82837E",
"!  c #A89865",
"~  c #B29F6A",
"^  c #AAA368",
"/  c #BCA66C",
"(  c #B3AB6D",
")  c #B9B36F",
"_  c #BEAB72",
"`  c #BCB573",
"'  c #C0AA6F",
"]  c #C3AD73",
"[  c #C6B175",
"{  c #C8B376",
"}  c #C4BC76",
"|  c #CAB977",
" . c #C8B978",
".. c #CBBC79",
"X. c #CDC77B",
"o. c #CDC37C",
"O. c #D0C67D",
"+. c #D2CB7F",
"@. c #680585",
"#. c #72048D",
"$. c #74178E",
"%. c #760693",
"&. c #7C039C",
"*. c #6D2A82",
"=. c #74298B",
"-. c #762C8D",
";. c #733789",
":. c #7C3592",
">. c #7E06A3",
",. c #784889",
"<. c #7B5A86",
"1. c #7E4892",
"2. c #7C6486",
"3. c #7D7681",
"4. c #810F9C",
"5. c #82259B",
"6. c #83389A",
"7. c #8704A5",
"8. c #8E18AA",
"9. c #8F29AB",
"0. c #8B3BA4",
"q. c #9237AD",
"w. c #9837B3",
"e. c #805A88",
"r. c #84469A",
"t. c #855895",
"y. c #83678B",
"u. c #827D83",
"i. c #847889",
"p. c #896896",
"a. c #906C9E",
"s. c #8B7495",
"d. c #92779C",
"f. c #8C46A4",
"g. c #9246AA",
"h. c #8E53A4",
"j. c #9458A7",
"k. c #9A48B5",
"l. c #9C56B5",
"z. c #A14EB8",
"x. c #A257BB",
"c. c #9667A6",
"v. c #966BA9",
"b. c #9C6BAC",
"n. c #9877A5",
"m. c #9D75AC",
"M. c #A17AAF",
"N. c #A563BD",
"B. c #A66BBB",
"V. c #A57CB4",
"C. c #A775B8",
"Z. c #AB7CBB",
"A. c #AC6AC2",
"S. c #AE74C2",
"D. c #B277C5",
"F. c #B37CC5",
"G. c #858682",
"H. c #888587",
"J. c #8A8A86",
"K. c #8C8C8A",
"L. c #8F8D8F",
"P. c #93938D",
"I. c #928E94",
"U. c #939393",
"Y. c #999996",
"T. c #9B959D",
"R. c #9B9B9A",
"E. c #9FA09F",
"W. c #A1A19E",
"Q. c #9C8AA4",
"!. c #A29FA2",
"~. c #A683B3",
"^. c #A984B4",
"/. c #A887B6",
"(. c #AA8DB4",
"). c #AB83BA",
"_. c #AE8ABC",
"`. c #B18CBE",
"'. c #A5A5A5",
"]. c #A7A7A7",
"[. c #AEAEAE",
"{. c #B0AFB0",
"}. c #B3B3B3",
"|. c #B7B7B8",
" X c #BCBCBC",
".X c #C0BFBF",
"XX c #D4CD80",
"oX c #D7D082",
"OX c #C0C0BF",
"+X c #AF82C1",
"@X c #B382C4",
"#X c #B38CC3",
"$X c #B683C9",
"%X c #B985CA",
"&X c #B68CC8",
"*X c #BB8BCD",
"=X c #B593C3",
"-X c #BA94C5",
";X c #BC93CC",
":X c #BB9AC8",
">X c #BE8DD1",
",X c #BF92D2",
"<X c #BFBEC2",
"1X c #C098CD",
"2X c #C18FD1",
"3X c #C194D3",
"4X c #C39BD3",
"5X c #C598D8",
"6X c #CB9DDC",
"7X c #C1B0C6",
"8X c #C9A4D6",
"9X c #CCA2DC",
"0X c #D1A8DE",
"qX c #D1A5E3",
"wX c #D3A6E6",
"eX c #D4AAE5",
"rX c #D7ACE8",
"tX c #DAADEA",
"yX c #D6B0E5",
"uX c #DCB2EB",
"iX c #E1BAEF",
"pX c #C3C3C3",
"aX c #C8C8C7",
"sX c #CCCCCC",
"dX c #CFD0CF",
"fX c #D1CFD0",
"gX c #D4D4D4",
"hX c #D7D7D8",
"jX c #DBDBDB",
"kX c #DFE0DF",
"lX c #E1E0DF",
"zX c #E5DFE6",
"xX c #DEE0E0",
"cX c #E4E4E4",
"vX c #E7E8E7",
"bX c #EDEDED",
"nX c #F0EFEF",
"mX c #F1F1F1",
/* pixels */
"....{ { { ..XXO.X.XXo.- o O o o X o o I +.+.+.+.+.+.: X X X o o O o b X.+.+.+.+.+.U O o o o o O # ; X.oX+.XX+.+.O.{ { [ ",
"} ..{ [ {  ...XXXXXX} v L.U.L.U.L.U.W b +.+.+.+.+.o.b P.L.U.U.U.Y.Y.v X.+.+.+.+.+.b J.U.U.Y.U.Y.Y.v X.oXXX+.+.+.O.{ [ [ ",
"}  .{ { [  ...XXXXXX} W bXmXmXmXmXmXvXR +.+.+.+.+.) P.mXmXmXmXmXmXmXY.` +.+.+.+.X.W vXmXmXmXmXmXbXW X.+.XXXX+.X...{ [ [ ",
"}  .{ ] ] {  .o.X.XXX.R xXbXbXbXbXbXbXW +.oX+.+.+.^ W.mXbXmXmXmXmXmXW.( oX+.oX+.o.W vXmXmXmXmXmXkXR +.+.XXXXX.X.{ { [ ] ",
"[ { [ [ { {  ...+.XX+.R hXnXbXbXbXbXbXP.) ) E b - $ [.mXbXmXbXmXmXmX[.- I E ` XX` K.bXbXbXmXmXmXjXR +.XXXXXXX...{ { ] [ ",
"] [ { [ [ [ | ..O.O.+.R sXnXnXnXbXnXmXQ $ O + . . X pXbXbXbXbXbXmXmX<X+   . # - b K.nXbXbXmXmXmXsXE +.O.X.XXX...{ [ [ [ ",
"_ { [ [ ] { { | O.XX+.E .XnXbXbXbXbXmXK.+ @ > < 7 4 gXmXmXbXmXbXmXmXfX, < > + +   K.mXbXbXbXmXmX XE XXO.+.XXo. .[ [ [ [ ",
"_ [ [ [ { ] ] | ..O.O.E }.nXnXbXnXbXmXE.> r 0 0 8 5 xXbXbXbXbXbXmXmXxXu @.q 0 > > W.mXbXmXmXmXmX}.! XXX.O.X...[ ] ] [ [ ",
"_ [ [ [ [ ' ' { | O.O.! '.mXbXbXbXbXmX[.9 @.q r 7 m vXbXbXbXmXbXbXnXcXB #.@.@.@.< {.mXbXnXmXmXmX'.^ O.o.O...| ] ] [ [ [ ",
"] [ { [ [ ' ' { | ..] ; J.mXnXbXbXbXmX X> < 8 < > G bXbXbXbXbXbXbXnXnXZ 7 8 7 0 1 <XmXnXmXmXmXmXR.( O. ...| | ] ' ' [ [ ",
"] [ { [ [ ' ' ' { ! = @ J nXbXnXbXbXmXaX4 @.q @.@.H.mXmXbXmXbXbXnXnXmX3.0 #.0 < , aXmXbXnXmXnXmXD ; / | | | ] ' ' ' [ [ ",
"] [ [ [ ' ' ' ' L % < r A cXcXcXvXvXvXdXi &.@.&.@.T.bXcXvXvXvXvXvXvXmXI.7 >.>.@.4 fXvXvXvXbXbXbXZ > = ^ | { ' ' ' ' [ [ ",
"] ] [ [ [ ' ' K @ r %.e n jXcXcXcXcXvXgXp @.%.&.q [.vXcXzXcXcXcXcXcXvX'.< %.>.#.y hXzXcXcXvXvXcXM r 8 = ! ' ' ' ' ' [ [ ",
"] [ { { [ ' L @ r 4.r < 3 gXcXcXcXcXcXjXa r &.7.9 <XvXcXcXzXcXcXcXcXbX<X1 #.&.#.n jXvXcXvXvXvXjX5 0 %.8 * ! ' / ' ' ] { ",
"] [ { ] [ Y * r 7.r 0 #.i dXvXcXcXcXcXxXM @.7.>.y dXcXcXcXcXcXcXcXvXvXsXy @.>.#.C xXcXcXvXvXvXdXy e 8 >.0 = ! / ' ' [ { ",
"W.{ { { ~ * r 4.e 8 %.7.i .XvXcXvXvXvXvXZ @.7.&.u jXcXcXcXcXcXcXvXvXvXjXu @.>.@.G cXcXcXvXvXbX7Xe 4.t w 5.8 ; / ' ' ] { ",
"] ] ] ] l w $.t t &.8.7.w }.vXcXcXcXvXvXJ %.7.&.B xXvXvXvXvXcXvXvXvXvXcXB 0 &.@.i.vXvXvXcXcXbX{.9 7.8.t 9 5.1 c ] ] [ { ",
"] { { Y 1 -.$.$.=.9.8.8.9 !.cXxXxXcXxXcXs.@.7.%.2.xXjXzXjXxXxXjXxXcXxXcX2.@.&.@.i.cXjXzXcXzXvX!.w 5.9.9.t t =.3 ! { [ [ ",
"] ] / 3 s s 0.-.0.w.q.5.i L.cXjXkXkXkXcXI.$.8.@.H.jXjXjXjXjXjXjXxXxXxXzXi.w %.r T.jXjXjXjXlXlXL.d 5.9.w.6.=.*.s z [ { [ ",
"] { K y -.g.0.:.w.w.q.:.-.i.xXxXkXkXkXcX'.*.q.*.T.xXjXjXxXjXxXjXxXzXxXcXT.w :.$.'.cXjXjXkXkXlXu.6.6.0.k.k.:.6.;.4 ! | ] ",
"] / 6 s 0.k.6.g.k.k.0.:.:.2.jXjXhXjXjXkX'.s w.i ].jXhXjXjXjXjXjXhXjXjXxX'.i -.*.[.jXhXjXjXjXjXG 6.g.6.k.k.f.0.r.s l ' [ ",
"] L 5 f.l.l.6.l.l.k.r.g.g.Z fXgXgXhXhXjX}.d q.u |.hXgXgXgXgXaXgXhXhXhXjX|.p :.a }.gXgXgXhXhXgXA g.z.r.k.z.z.r.z.r.3 ! [ ",
"] l d l.l.h.g.l.x.x.f.l.g.C fXhXhXhXhXjX X5 i 6 pXhXhXgXgXsXJ gXhXhXhXjX<X5 y ,  XgXjXjXjXjXfXC l.z.f.j.x.x.t.z.l.a K [ ",
"! 3 h.A.x.h.l.A.x.j.,.6.;.6 pXhXhXhXhXjXpXn r.M dXhXgXjXgX<Xh pXhXjXhXjXfXM ;.n pXjXhXhXhXjXaX6 r.l.j.h.x.N.l.j.N.r.l ] ",
"K a N.N.N.h.x.h.1.d d 1.t.B |.gXgXfXfXgXpXB f.C dXgXgXgXgX}.% }.gXgXgXgXfXA ;.M sXgXgXgXgXhX|.5 ,.;.d d j.N.N.j.B.N.z ~ ",
"b t.A.B.j.B ;.e.c.h.j.B.A.B '.fXsXdXdXdXaXC 1.3.dXsXsXsXgX'.& '.dXdXsXsXdXG ;.N aXsXdXdXdXgX].u B.B.b.,.,.;.t.e.C.D.t.Y ",
"N b.b.t.d t.C.C.S.c.B.A.A.,.E.fXsXsXsXdXsXF ,.u.dXsXsXsXfXI.5 I.dXdXdXdXgXu.a S sXsXsXdXdXhXR.B B.C.S.j.C.C.h.B e.C.c.K ",
"C c.e.j.b.B.D.D.D.c.C.S.A.<.L.sXaXaXaXaXpX3.B I.sXaXsXsXsX3.B u.dXaXaXsXfXI.u F sXsXaXsXsXgXK.,.B.D.D.b.B.D.D.b.t.r.c.P ",
"6 t.D.%Xb.Z.F.F.D.v.D.F.D.c.u.aXsXsXaXsXsX3.n !.sXsXaXsXsXG <.3.sXsXsXsXgXW.4 J sXsXsXsXdXdXu.e.C.F.F.b.C.F.F.Z.Z.Z.t.x ",
"M F.%XF.C.Z.2XF.$Xb.@XF.F.v.H pX<X<XpX<XaX3.2 ].pXpXpXpX<XZ c.Z OXpXpXpXaX]., u.aXpXpXpXaXaXG c.C.$X$XC.C.%X%XZ.C.2X).x ",
"e.%X%X%XM.F.F.%X$Xb.@X$X$XC.F pXpXpXpXpXaXJ.& }.pXpXpXaX|.C C.C  XOXpXaXaX|.& K.aXpXpXpXaXOXG b.V.$X%XV.Z.F.%X).Z.2X3XP ",
"V ;X*X%XC.F.2X2X>Xm.%X*X*X@XF  X<XpX<X<XpXP.,  XpX<XpXpX].C $XC [.pXOX7XpX X2 U.pX.XpXOXOX XZ C.V.2X2XZ.F.2X2X#X).3X2XA ",
"z m.>X>XV.$X*X>X>Xm.&X>X>X&XC [. X X X XOXY.j |. X X XOXE.<.>X<.E.<X X X X Xj R. X X X XOX[.F Z.C.3X*XZ.+X;X,X+X#X:Xn.x ",
"Z a.c.;X).+X>X,X>XC.>X,X,X>XC '. X X X XOXE.I  X X X XOXI.2.,X2.I.<X<X X X XI '.<X X X XOX'.G +X@X3X2XV.@X4X,X#X/.v.n.P ",
"G &Xm.t.p.).5X3X,X~.&X,X,X,XC Y.|.|.|.|.|.}.[.|.|.|.|.|.3.d.5Xa.I |.|.|.|.|.[.}.|.|.|.|.|.U.<.+X#X3X4XV.*X,X&Xp.y._._.L ",
"b /.5X-Xa.,.a.).,X+X&X5X5X5X2.K.|.|.|.}.|.|.|.|.|.|.|.|.H ~.9X~.H |.|.|.|.|.|.|.|.|.}.}.|.L.y.).*X5X3Xm.V.p.p.p.:X0X~.Y ",
"Y y.6X6X1XV.V.p.t.<.a.#X,X9Xs.3.}.[.[.}.}.{.}.{.[.{.{.{.S =X8X#XS [.{.}.{.}.{.}.}.{.[.[.}.J d.V.Z.M.t.V a._.8X`.0XeXP ! ",
"^ N ;X6X6XV.5X6X,X).2.p.p.p.C H }.{.}.{.{.{.{.{.{.{.{.].F 4X0X,XF ].[.}.}.[.}.[.{.{.{.}.{.G M ,.p.M.V.).8X0X1X`.eX:Xl ' ",
"} l m.9X9X#X&X6X6X6X/.4X,X;Xn.S [.{.{.{.{.[.{.{.[.{.[.E.k /.m.V.m '.[.[.[.[.[.[.[.{.[.].[.S n./.8X6X`.2X9X0X-X1XeXs.K [ ",
"} Y Z 4XqX;X_.9X6X6X@X4X9XqX-XN E.'.'.'.].'.].'.].'.'.K.M m.m.m.M U.'.].'.].].].].'.'.!.E.N ~.=X9X6X^.1XqX0X`.0X:XN ! ] ",
"[ ( x n.8X9X/.6XqXqX;X#X9XqX5XN R.].'.'.'.].'.].'.'.'.3.s.yXeXeX3.G.].'.'.].'.].'.'.'.E.Y.Z ~.,XqX5XZ.0X0X4X-X8Xv.c ] [ ",
"] [ K 2.~.qX-X&XqXqX9X/.9XwX8XZ R.'.'.].].].'.'.'.'.'.H n.eXqXtXQ.I ].'.].'.].'.].].'.].U.N ).9XwX-X-XqXtX`.8X^.G Y { [ ",
"] [ ~ x m.).9X~.6XqXqX#X,XqXqXF K.E.'.R.E.E.E.E.'.R.Y.S /.eXqXtX~.F E.E.E.E.E.E.E.R.R.R.H.N +XqX0X).9XrX6X`.^.Q.b [ [ [ ",
"_ [  .K 2./.).=X+XeXqX,X/.eXeX2.J Y.Y.Y.Y.R.R.Y.Y.U.U.k /.eXtXrX=XS Y.Y.Y.Y.Y.Y.R.Y.U.U.3.m ,XeX1X`.rX0X^.n.`.D ! { [ [ ",
"] [ [ _ l ~.).m.Q.4XwXqX).,XtXs.J Y.Y.R.R.Y.R.R.Y.U.U.k _.rXeXrX,XN U.Y.Y.Y.R.R.R.R.Y.U.H C qXeX^.8XuX1Xe.:Xs.K ..{ { [ ",
"_ [ [ [ ! x :X=Xp.n.eXuX8X).yXn.H Y.Y.R.R.R.R.R.Y.U.J.n #XtXrXtXeXS L.R.Y.Y.R.Y.R.R.U.U.S d.uX,X`.uX1Xs.1X(.l ' ..{ [ [ ",
"] [ [ [ [ Y m 4X,X<.m.yXrX#X:X/.S L.U.U.U.U.U.U.U.J.3.N =XtXrXtXyXF G.U.U.U.U.U.U.U.U.U.S /.yX#X8X^.V 6X:Xg ! ] { { { [ ",
"] [ [ [ [ [ K m 8XrXv.<.:X0X/.~.S P.P.U.U.U.U.U.P.U.H 2.;XrXrXtXuX2.I L.U.U.P.U.U.U.L.L.m =X/.Q.n.s.`.}.g Y ' ] [ [ [ [ ",
"] ] +.~ ] ] ' P z :XeXa.y.M.^.y.x P.U.U.U.U.U.U.L.P.S s.;XeXtXtXuX2.H L.P.U.U.U.P.U.P.P.j Q.<.~./.=X_.g U / / _ ] [ [ [ ",
"_ [ ] ] XX~ ' ~ K 3 (.rXM.V.~.V f K.I.K.J.K.K.L.K.K.S ~.,XeXuXuXtX2.S L.K.K.L.L.P.P.K.K.f 2.yX&X(.Q.f Y ] / / _ ] ] [ [ ",
"_ [ [ XX[ ' ' / / L = s.0X(.`.8Xk Q J.K.J.J.J.J.J.G.k =X4X0XuXrXtXn.m K.J.K.J.J.J.K.I I k 0X=XQ.2.- E _ / / / / ' ] [ [ ",
"] [ [ [ [ ' / / ' ' ! - n `.(.^.N Q K.J.K.J.J.K.J.H.j _.`.=X8X8X,Xs.j J.J.J.K.K.K.J.P.I N Q.3.f l ( [ _ ' / / / ' ] ] [ ",
"] [ { { [ ' ' / ' ] ] / c = P /.h I K.K.K.J.K.J.J.Q f p.n.p.n.m.a.s.j G.K.K.K.K.K.K.K.I & - $ T | | } ' ' ' ' ' ' ' ] [ ",
"] ] { [ ] ' / ' ] ] ] { { ~ l 3 & H Q G.G.Q G.Q I H k #XuX:XiXiX4XyXN J Q Q G.I J.J.J.I # I ` +.O.| { ] ' ' ' / / ] [ [ ",
"' [ [ [ [ ' / / ] | { { { O.+.' : S Q I G.J J G.I H G :X8X:XuXiX4X0Xk H Q Q I I I W I H T +.+.+.O.| { { { | ' ' / ' [ [ ",
"' [ { { ] ' / ' { | { | | o.+.oX^ S G.Q Q Q Q Q G.S 2 s.d.=X8X0X(.n.N H Q Q Q Q I J.I v ^ +.+.XX+...| | | | ' ' ' ] ] [ ",
"' [ [ [ [ ' ' [ { ........O.O.+.( v I I I I Q Q J.v X X % & f f & & # S I Q Q Q Q Q Q v ( XXXX+.O.O.| | | | | ' ' ' { { ",
"] [ ' XX{ ' ' { { ....O.O.O.+.+.) v J.Q J.Q J.Q J.v U T T T U T ^ ) T v J.J.J.Q J.J.K.v ) +.XX+.+.O.O.O.O...| [ ' [ ] { ",
"' { ] XX[ ' { { O.O.O.O.O.+.+.+.} ; j j j j j j j h ` oXoXoX+.+.+.oX` f j j j j j j j : X.+.+.XX+.O.O.O.O.O...{ [ ] { ] ",
"' ' W./ { { { { O.O.O.O.+.+.+.O.X.-               $ X.oX+.oX+.+.oX+.X.$               - +.oX+.oX+.O.O.O.+.O.o.| { ] [ { "
};
