/* XPM */
static char *_646140600893[] = {
/* columns rows colors chars-per-pixel */
"60 60 237 2 ",
"   c #564E6E",
".  c #5C4D74",
"X  c #4E5E7E",
"o  c #545575",
"O  c #5B5374",
"+  c #525B7C",
"@  c #5B5C7D",
"#  c #64597D",
"$  c #675A7D",
"%  c #4E607F",
"&  c #717A7D",
"*  c #27CF2D",
"=  c #3EB644",
"-  c #55AF51",
";  c #5D956D",
":  c #6A9073",
">  c #789374",
",  c #73AE6A",
"<  c #70C554",
"1  c #85A956",
"2  c #88B65B",
"3  c #96B45D",
"4  c #8D9479",
"5  c #B29F66",
"6  c #A89A79",
"7  c #92AF6B",
"8  c #9AB86B",
"9  c #94A877",
"0  c #A6A765",
"q  c #B6A066",
"w  c #B6A268",
"e  c #BBA56B",
"r  c #B6A869",
"t  c #BEA96E",
"y  c #A9B468",
"u  c #B6B76C",
"i  c #B9A777",
"p  c #BFAA70",
"a  c #BCB471",
"s  c #C0AA6F",
"d  c #C3AD72",
"f  c #C6B176",
"g  c #C8B377",
"h  c #CAB678",
"j  c #C7B878",
"k  c #CCBC7A",
"l  c #8AC356",
"z  c #91C25D",
"x  c #8BC769",
"c  c #98CB65",
"v  c #A8C86C",
"b  c #B1C86F",
"n  c #B9C973",
"m  c #CEC27C",
"M  c #C8CA7A",
"N  c #D1C57D",
"B  c #D2CA7F",
"V  c #645F81",
"C  c #6A5B82",
"Z  c #72578B",
"A  c #4C6383",
"S  c #476F8F",
"D  c #496C8C",
"F  c #556985",
"G  c #54708B",
"H  c #5A738D",
"J  c #466F90",
"K  c #496F90",
"L  c #477090",
"P  c #497090",
"I  c #547393",
"U  c #5C7595",
"Y  c #5B7899",
"T  c #636384",
"R  c #6A6788",
"E  c #75688C",
"W  c #677386",
"Q  c #64738D",
"!  c #76748C",
"~  c #6D6B95",
"^  c #7E6696",
"/  c #7B6C93",
"(  c #786A94",
")  c #7F6B9A",
"_  c #637596",
"`  c #687697",
"'  c #647B9B",
"]  c #6C7A9C",
"[  c #7C7493",
"{  c #767999",
"}  c #7F75A1",
"|  c #737DA1",
" . c #7B7DA4",
".. c #826B96",
"X. c #82669A",
"o. c #836B9A",
"O. c #876D9B",
"+. c #83719C",
"@. c #8A729E",
"#. c #887B9A",
"$. c #896DA3",
"%. c #926DA7",
"&. c #8574A4",
"*. c #8D74A1",
"=. c #837AA3",
"-. c #8E7AA2",
";. c #9077A4",
":. c #947BA6",
">. c #9775AA",
",. c #957BA9",
"<. c #9A7DAC",
"1. c #9E7BB1",
"2. c #A27BB4",
"3. c #7B8586",
"4. c #7A9883",
"5. c #6D8994",
"6. c #5BA183",
"7. c #6FA887",
"8. c #6982A2",
"9. c #7384A5",
"0. c #7A83A5",
"q. c #7B84A8",
"w. c #7589A9",
"e. c #7D8AAA",
"r. c #888688",
"t. c #939288",
"y. c #888699",
"u. c #AA8F89",
"i. c #A79897",
"p. c #88AB8C",
"a. c #9DA785",
"s. c #AEAB8D",
"d. c #8684A5",
"f. c #8384AA",
"g. c #8A85AB",
"h. c #858CAE",
"j. c #8A8CAE",
"k. c #9586A9",
"l. c #9B82AC",
"z. c #9A8AAD",
"x. c #8792AD",
"c. c #8A8AB0",
"v. c #8B8EB2",
"b. c #9D82B0",
"n. c #988DB2",
"m. c #8B96B5",
"M. c #8D94B5",
"N. c #9295B5",
"B. c #939AB7",
"V. c #9A96B8",
"C. c #9299B9",
"Z. c #9A9CBA",
"A. c #A386A9",
"S. c #B19AA9",
"D. c #A384B3",
"F. c #A984B4",
"G. c #A48BB4",
"H. c #AB82BB",
"J. c #A58BB9",
"K. c #AB8CBB",
"L. c #B08CBC",
"P. c #A393BB",
"I. c #A29DBC",
"U. c #AB98BD",
"Y. c #B391BC",
"T. c #BB98B9",
"R. c #9AA1AF",
"E. c #99A6B5",
"W. c #9DA1BC",
"Q. c #BCA9A8",
"!. c #A3A4BE",
"~. c #A9A5BE",
"^. c #B4B3BD",
"/. c #CBBA88",
"(. c #CCBD92",
"). c #C5BABB",
"_. c #D3B6B8",
"`. c #D4CD80",
"'. c #D3CC90",
"]. c #D8D89C",
"[. c #D2C5A9",
"{. c #DBD6A8",
"}. c #D1C7B6",
"|. c #DDD9B6",
" X c #A89AC1",
".X c #AB9CC3",
"XX c #BB94C3",
"oX c #B896C3",
"OX c #B59BC4",
"+X c #BC9DCA",
"@X c #9EA4C1",
"#X c #A5A6C2",
"$X c #ACA5C3",
"%X c #ABAAC3",
"&X c #B8A7C7",
"*X c #BCA3CC",
"=X c #B6B5C8",
"-X c #B5B4CC",
";X c #C298C9",
":X c #C39CCB",
">X c #C99DCE",
",X c #CC9DD0",
"<X c #D09FD2",
"1X c #C3A3CF",
"2X c #CBA6CD",
"3X c #D7ABCA",
"4X c #C8B8C1",
"5X c #C5A5D0",
"6X c #CCA4D2",
"7X c #C5A9D1",
"8X c #CDA9D4",
"9X c #D4A5D6",
"0X c #D8A7D7",
"qX c #D4A9D7",
"wX c #D8A7D8",
"eX c #D7AAD8",
"rX c #D9A9D9",
"tX c #C8B6D4",
"yX c #CDBBD9",
"uX c #DAB4DB",
"iX c #D6BADB",
"pX c #BCC2D0",
"aX c #C5C6CA",
"sX c #DED9C9",
"dX c #C9C5D7",
"fX c #D3C6DD",
"gX c #DAD6D7",
"hX c #E2DEC3",
"jX c #E0DAD5",
"kX c #E5E1CB",
"lX c #E7E2D9",
"zX c #DCC6E1",
"xX c #D6CFE1",
"cX c #DCCBE2",
"vX c #DCD8E3",
"bX c #E1D0E5",
"nX c #E2E3EA",
/* pixels */
"g f f g h k `.`.B B B B B B `.`.`.`.`.`.`.`.`.`.`.`.`.`.`.`.`.`.B B `.`.`.`.`.`.`.`.`.`.`.`.`.`.`.`.`.`.`.`.`.`.N m g g ",
"g f f d f g k N B N B B B `.`.`.`.`.`.`.`.`.`.`.`.`.].jXgXgXgXhX{.B `.`.`.`.`.`.`.`.`.`.`.`.`.`.`.`.`.`.m m B m m j d f ",
"g f d s t d g k k k k k B B B B `.`.`.`.`.`.`.`.`.M < ,.<.<.l.<.,.x v `.`.`.`.`.`.`.`.`.`.`.`.B `.B m m k k h k j d s d ",
"f f f d t t f f g g h h N B B B B `.`.`.`.m m b s.*.2.rXwX9X:X9X8XG.-.= < b `.`.`.`.`.`.B B B B `.`.k h f f g f d s e s ",
"f f f t t t t t s s d g k N k m k N /.M 8 a.2.>.l.:.:X9X6XF.*.l.:X8X:X*X+Xp.- 7 k m m m m m m m N k k g d s s t s e s s ",
"g f f f d t e q q e d f g g g a y : 1.$.%.1.;.@.X.l.eXwXY...^ ^ ,.6XuXnXnXxX-XtX7.u j g g h g g g g g f d t e q e s d g ",
"g f g g g f t e t t s s d y > k.>.O.*.O.) ^ @.-.D.OXqX8XI.f.) ) ) +XeXuXuXzXnXnXfX> u k f f d d s s s s s t t w s d k k ",
"g f g k k j f d s s t s 1 ( X.$.O.o.,.J.XX:X>X6X9XqXqX*X!.!.Z.-.*.,XeXeXeXeXuXrXuXyX4.u f d d t e t t w t s d s f h k k ",
"f f g k N k k g f f 3 ! E o.O.:.K.+X6X9XwXeXeXwX9X9X6X!.N.m.m.=.D.*X*X1X9X9XwXwXeXeX>X> d s t w q q q e t d d g h k N k ",
"f f f h k /.k k g ! / ^ @.F.*X9XwXwXwXwX6X5XOX$XP.h.q.h. . .] ' ]  . .k.l.l.XX6XrXqX9Xr.y t w q q q q t d d h k /.N k g ",
"g g g g h k `.k r.@.O.A.>X0X0X0XqX5X+XU.v.q.' G S L L L K L L L K K @ ` h.d.o.,.;XrX9X>X> q q q q q t d d g k k N k k g ",
"k k h k k k `.3.,.<.U.8XrX0XqX1XU.w.' I S S S S K L L L L L L L S S D % ` M.f.^ >.5XyXqX> s t e e t s d g h N B N m k k ",
"`.N B m B m r.O.Y.8X5X*XeX1XI.w.I S S S P P L P P S L P L P 3.g a D K A O | M.=.) G.zXyX4 t d s d d d g h N B B B N B B ",
"B B `.B B r.>.XXwXwXqX8XI.w.I K L S L L S P P L L P P L P L t.h j P K D   E @Xg.) O.oX,X4 f f k h g g h k B B `.B B `.B ",
"N B `.B c >.;XzXcXeX5XV.' K S S L L L L P L L K P P L P P P m m B P J A o 0.C.=.^ X.b.+X4 h k k N k N N N B `.`.B B `.`.",
"h k B M k.;XwXvXiX*XM.' K K K K L L L L P L P L P L K P P K B B s.S K o T M.x.+.X.X.,.K.9 h k N B B B B B B `.`.B `.`.B ",
"h h k y.:XeXxXvX*XN.' K S L L L K P L P S P L L P S S L L P P L J D D . R M.#.o.1.l.#.4 k k B B `.`.`.`.`.`.B B B B B B ",
"h sXy.G.8XcXnXtXZ.h.S K L K L L L P P L K K P P P P S S L K S L D D @ ] h.) o.U.y.3.`.`.B B B `.`.`.`.`.`.B B B B B B k ",
"h jXO.#.-XnXxX%Xx.P L L L L S S L L D L S S S K L L L S D A D A V T q.c.} o.H.y.n B B B `.`.B `.`.`.`.`.`.`.B B B B N k ",
"f jX..} -XnX-XC.] P L K L L S J L L L D D D A A A A A A O # @ T  .v.g.o.O.y.p.n `.`.`.`.`.`.`.`.`.B `.`.`.`.B B B N k g ",
"f jXX.O.-XbX#Xm.Y K K L D X A D A A A A R T   @ R E V V T _ 9.h.c.=.X.1.#.c `.`.`.`.`.`.`.`.`.`.`.`.B B N B B N N k f f ",
"g jXO.<.yXcX#Xh.F A X A o   @ R R T R ( =.} ~ 0.M.v.| Y I _ ) =.X.%.+.x c `.`.`.`.`.`.`.`.`.`.`.`.`.B B m m m m k d s d ",
"g g 1 H.cXxX@X .R F E E T { e.j.v.h.v.M.C.C.C.C.M.C.| U ~ ( @.O.X.x c `.`.`.`.`.`.`.B B `.`.`.B B N B m g g g g f t t s ",
"g f y 2.uXeX*XC.e.| ] U P ' M.C.C.C.m.C.C.M.M.v.&.&.) } &.) , v b N k `.k `.k `.B B B B B m N N N m m j f f s s t t t s ",
"f g f 2 $.XX<X$Xn. .` Y _ | j.M.M.f.f.=.O.&.&.O.) #.: l h h h h h h k j h h k k k h k h h h k h k k g g s t e e t t s d ",
"f f f f a , #.XX:XH.;.) ) o.+.o.+.o.) o.@.D.J. X=.* l u f f f h f f h f g h f f f f g f g f f d d d g s s t e q s d g g ",
"g f g h j j t ; 3.: 3.U.K.D.:.l.z.A.D.G.+X*XJ.v.U.y.4.2 f h f f f f f f f f f f f f f f g f s s s t t s t t t s d g k h ",
"f f g /.m m g f u 3 - <.L.K.G.G.OX6X6XyXyXU.+X7X8XqXyXz.z.z., a f f f g f f f d f f d f f d s s q e q q t d d f h N k k ",
"g f h h m k k j , :.F.9XwXqX8XK.G.oX+X*XOX.X+X*X+XU.j.=X=X=XP.;.l.<.i.0 r a t t d s s s s s q q q q q t t d g k k k N h ",
"h f f h h m m i.XXrXzXuX8X7X7X+X+X X+X*XP.J.OX5X+XU.y.#.[ W E #.k.Y.oX1.F.t.0 q s q q s s q q q q 5 t s d f g m N k h g ",
"h d f f g m i.eXrXcXvXyX8X8X:X2.V.&XyX#Xf.N.%X8X8X8X7X,X:XY.G.k.#.# R @.G.K.2.;X0 5 q q q q q q q q t s f g k m N k g f ",
"h g f f u i.qXrXzXyXtXqXqX5X X` q.@X%X!.C.Z.%Xe.Z.$X$X.X$XOX:X*XoX:..   # R @.XX4XQ.5 q q q q q q q s s f g k N N k f f ",
"g f f f i.3XwXcXtX7X6XoX XZ.C. .j.m.x.9.m.W.%X' I h.Z.I 8.C.v.N.n.E O F     O # -.&X).s.e e w w q q e s d g k k k k k g ",
"g g g y T.rXwXrX9X XV.M.M.M.M.m.W.!.C.w.8.C.W.W.Y w.W.P ' C.0.N.0.D D I D % R T . # z.tX_.i e w q q e t d d g /.N k k h ",
"g g g A.wXrX5X*XZ.M.M.| I ]  .q.h.!.~.M.P ' h.!.8.I !.x.K '  .Z.0.K K J S D _ 0.{ V O o.Y.iX/.6 q q w w s s d h k N k k ",
"g g g F.rXeX1XZ.M.Z.#XZ.w.K K Y ] q.!.%Xx.L I M.h.Y !.m.P I {  X0.K D K S I I L U e.T . $ :.k.r.6 w e e s s s d g k k k ",
"f d f F.wX9X$XN.h.M.W.#XZ.9.Y J K P f.!.Z.9.Y q.Z.B.M.h.q.j. .Z.0.K D D L I I S K _ h.#   $ [ W r.t.s s p t e e s f h g ",
"g g d F.rXrXtXM.q.h.M.v.C.@XV.w.8.J _ x.#XW.C.m.m.m.Z.%X!.Z.v.Z.9.K P P G U S K K U 9.] o   # ! W & 4 f d e e e s s d f ",
"g f d F.rXrXvX@XC.M.h. . .v.v.Z.%Xw.] x.W.!.#X.XW.j.9.B.Z.M.h.M.f.P K P I U S K S _ I L D +   $ [ [ r.r.d t e e s s s d ",
"f f d A.;X6XyX$XC.m.v.v.f. .| M.C.Z.M.Z.C.W.@X#X~.B.w.V.$X-X&Xv.m.w.P P H Y S S I I L S P D +   ( Y.XXS.8 f d f s e e s ",
"g g d u.,.;./ g.W.C.m.C.M.M.h.m.N.M.M.v.W.!.$X&XdXxXdXgXgXnXvX=Xj.M.w.U F G S I ` P S K S I _ + O G.wX9Xt.j h k g s t d ",
"g f d d $.R   @ V.h.m.M.C.e.9.] q.M.0.f. XdXvXvXnX{.|.{.{.B ].jX%Xj.B.e.K G H _ U P S L I | U S o ^ >XwXT.7 B B m k d d ",
"f f g g #.#     #  .I Y 0.{ G D ` ] U Y h.-XsX`.B B `.`.B B `.`.|.=Xj.N.w.P G { ' G L ] | U S S + O ;XrX2X9 B B N k k f ",
"g f g h y .     R ;X0.D I ] U K K _ K D Y h.aX`.B B B B B B `.`.`.`.^.v.B.w.P G Q I ] ] P K S S D @ OXeX>X9 B B B B m k ",
"g f h k m & . . L.0X+X9.L I ] W G U S S K ] V.aXB `.B B B B `.`.`.`.'.=Xj.M.e.I G Q | U L D L I G d.2XeX2X9 B `.B B B k ",
"h h k N `.v Z C XXrX9X8Xm.I | ] ] I K Y 8.h.N.N.}.B B B B B `.`.`.`.`.{.^.h.M.w.Q W Q G D I _ ] ` .XwX9XQ.v `.`.B B B N ",
"k k N `.B B r.X.;.+X9XuXfX%XM. .f.h.j.V.!.!.W.v. X'.m M B B B B `.`.m m |.^.M.#X%X%XR.x.U ` ` 5.P.8X9X<Xa.B `.`.`.B B B ",
"k k B `.B B B ! X.@.J.6XiXzXdX-X!.N.%X&XW.B.N.Z.f.^./.k N N N N N M /.`.[.&Xj.tXcXfXnXgXh.| h.+XqXrXwX2Xa.B `.`.B B B B ",
"B `.B B B `.`.n / ....1.:X9XuXzXfX=X~.~.M.B.q.B.Z.j.).m k k k k k k k /.[. .W G.6X6XyXuX7XpXfXrXwXwX;Xi.b `.B B B `.`.`.",
"B B B B B B B B v ! X.E R ;.>X0XuXiXfX*X!.x.{ N.!.V.N.^.g g g g g d g (.~.^ [ Y.9XcX#X<.;XiX8XeX9Xk.k.6 h N B B B B B B ",
"k k k /.m N B B m z E ..$ # $ :.2X0XuX0XyXgXtX*XOX~.v.I.[.f f g f /.(.dXQ R b.fXZ.!.dX+.,.8X6X+XA.R 6 g h k B B B m m m ",
"k h h h k k B B k j 3 / X.^ #   $ L.<X9XeXrXrXrX9X9X9X*X^.3X_.[._._.*Xv./ ! *XaX8.7.E.o.o.n.n.;.,.6 d s g g k N m k k h ",
"g f g g k k m k g f d 8 4 E X.# # o.-.K.+X>X9X6XeXuXrXT...3X3X3X3X9XD.! ^ ;.tXE.5.; 7.{ ..;.z.:.4 q w t d f h k m k h g ",
"g f f k m m k h g d t w 5 1 : ..X.-.-.o.o.$.l.D.G.Y.T.>./ 6X9X6X>X9X1Xl.^ ;.P.' 6.7.7.] $.tX-X3.q q q t s d g h k m m h ",
"f f g k m m h f d t t w q q 5 - ( E / @.) ) &.@.E       # ..,.1.l.<.l.<.@.:.=.H 5.7.-.^ :.xX*Xr e q q q t s d g g m N h ",
"f f g h h g s s t t t s s s s s 0 - R X.^ ) *.@.@.Z $ C C # E o.@.*.<.@.l.Y.*Xd.{ *.^ o..XxXi d s s t t t t t t d g h h ",
"f g f f f s s q e e s d f f f f g g 8 , X.X.X.X.^ ..X.^ X.o.X.@.*.@...@.+.~.bX+X:.X.*.D.tXa.g d f f f d s s q q s s f f ",
"g f f d s s e e s s d g h k k k k k k h b < > X.X.X.^ ....X.^ ^ X.#   $ ^ :.tXuX2XT.*.>.s.k k k k h h f d s e s e s d d ",
"g f f s s e s s d f g h N N B B N N N N N N N M c ! o.o.O...O.O.$ O @ ^ o.O.-.l.,.i.n N N N N `.N N k h f d d d s e s s ",
"f f f s s s f g g g g k B B ].`.`.`.`.`.N `.N `.`.{.].].{.{.{.{.|.|.|.hXkXlXlXlXjXhX`.B `.`.`.`.`.N N k h h h h f s e s "
};
