/* XPM */
static char *result[] = {
/* columns rows colors chars-per-pixel */
"60 60 155 2 ",
"   c #000000",
".  c #050903",
"X  c #080D06",
"o  c #06040C",
"O  c #09060C",
"+  c #050C0A",
"@  c #0A0B0C",
"#  c #110F0F",
"$  c #0A1306",
"%  c #07110A",
"&  c #0D140B",
"*  c #0E1A09",
"=  c #11140E",
"-  c #121C0D",
";  c #070310",
":  c #0C0511",
">  c #0E0C12",
",  c #110613",
"<  c #110B13",
"1  c #190D16",
"2  c #1E0E18",
"3  c #0E1310",
"4  c #0F1910",
"5  c #121412",
"6  c #1C1215",
"7  c #131A11",
"8  c #1D1C15",
"9  c #1F1118",
"0  c #210F19",
"q  c #221217",
"w  c #221D15",
"e  c #2A1A17",
"r  c #241419",
"t  c #2C151A",
"y  c #251D19",
"u  c #2B1B1A",
"i  c #31171A",
"p  c #331A1C",
"a  c #3B1D1D",
"s  c #14210D",
"d  c #18230F",
"f  c #142311",
"g  c #1D2314",
"h  c #252117",
"j  c #222B16",
"k  c #242419",
"l  c #2C211C",
"z  c #2D2F1B",
"x  c #33231E",
"c  c #3B201E",
"v  c #362B1E",
"b  c #32321D",
"n  c #361C20",
"m  c #362420",
"M  c #3C2322",
"N  c #362921",
"B  c #3A2A22",
"V  c #383121",
"C  c #411F1E",
"Z  c #43221E",
"A  c #442524",
"S  c #4C2622",
"D  c #442922",
"F  c #4B2A25",
"G  c #462C29",
"H  c #4D2C28",
"J  c #502722",
"K  c #542A23",
"L  c #592D26",
"P  c #542E2A",
"I  c #5A2F28",
"U  c #4D3026",
"Y  c #453529",
"T  c #4C3129",
"R  c #513527",
"E  c #5E3227",
"W  c #54322B",
"Q  c #5D322A",
"!  c #573E30",
"~  c #5A3C31",
"^  c #62352D",
"/  c #653B2D",
"(  c #6C3E2E",
")  c #643730",
"_  c #653931",
"`  c #6B3C32",
"'  c #703F35",
"]  c #4D412A",
"[  c #51442A",
"{  c #5E4433",
"}  c #66412F",
"|  c #6E412F",
" . c #73412F",
".. c #614233",
"X. c #6B4131",
"o. c #694A35",
"O. c #6F453A",
"+. c #6B4F38",
"@. c #744333",
"#. c #794635",
"$. c #764834",
"%. c #7C4936",
"&. c #744C3A",
"*. c #755539",
"=. c #7B533E",
"-. c #834D37",
";. c #844E38",
":. c #865137",
">. c #865038",
",. c #8D553A",
"<. c #885B3E",
"1. c #90573B",
"2. c #94593D",
"3. c #855441",
"4. c #8F5B45",
"5. c #955C41",
"6. c #9A5F44",
"7. c #866643",
"8. c #8F6C47",
"9. c #926645",
"0. c #9C6345",
"q. c #9D644C",
"w. c #9B734B",
"e. c #A46C47",
"r. c #A36649",
"t. c #A66A4A",
"y. c #A96C4C",
"u. c #A2764E",
"i. c #AD734D",
"p. c #B1764E",
"a. c #A56B50",
"s. c #AA6D51",
"d. c #B06F50",
"f. c #AE7052",
"g. c #A77A50",
"h. c #AA7D53",
"j. c #B27455",
"k. c #B57B52",
"l. c #B87758",
"z. c #AF8055",
"x. c #B18355",
"c. c #BD8456",
"v. c #BE8158",
"b. c #BA8959",
"n. c #C18555",
"m. c #C48A5A",
"M. c #C98C5C",
"N. c #C7935E",
"B. c #CD8F60",
"V. c #CC9260",
"C. c #D09760",
"Z. c #DA9E65",
"A. c #DAA066",
"S. c #DEA468",
"D. c #E3A86A",
/* pixels */
"                                                                                                                        ",
"                                                                                                                        ",
"                                                                                                                        ",
"                                                                                                                        ",
"                                              . . . . . .   . . . . . . .                                               ",
"                                            . $ * * * * * * * * * * * * $ $                                             ",
"                                            $ * % % % + + + . + X + + + $ $                                             ",
"                                          . s 7 > : : : : : : : < < < < f 7 .                                           ",
"                                      . % f g V T G D M A c M T { { ..{ ] b s $ $                                       ",
"                                      . % 7 k ! 4.3.$.| | |  .<.g.h.z.z.7.] - * *                                       ",
"                                      X + @ t O.l.d.6.1.1.,.,.k.Z.S.D.D.x.o.6 & s .                                     ",
"                                  . = - m ~ ` 3.y.f.p.k.i.e.r.k.B.B.M.n.g.9.*.[ z & . .                                 ",
"                                  @ 7 8 ~ a.q.4.2.t.c.C.m.j.s.j.l.k.t.5.0.h.N.8.Y 7 % X                                 ",
"                                  @ 5 6 ..f.s.6.,.t.m.Z.M.l.j.j.f.f.0.1.0.c.S.g.Y < + X                                 ",
"                                  @ > , G =.3.4.0.i.v.V.v.y.r.r.e.r.y.p.i.u.w.+.m : o . .                               ",
"                                  @ < > y B T 3.j.j.j.j.t.5.1.,.2.2.k.A.b.<.B y 6 : @ $                                 ",
"                                  @ 5 : w x U &.s.s.a.a.9.>.>.>.:.,.i.C.x.*.M y 1 : O % .                               ",
"                                  @ < < w Z U } =.=.=.=.&.X.} ..} X.*.8.7.o.T p 6 : @ $                                 ",
"                                  @ 3 < p K K D N N B N N N m N m N N N B W _ G r : o $ .                               ",
"                                  @ > < p K K Z l x x x x x x m N N v v G Q @.W p q 5 s * $                             ",
"                                  @ > < i K K Z D Z D Z D D A D T W W / | @.%.` H M l g f 4 .                           ",
"                                  @ > < i K K K K K K J K K F E ^ _ $.,.,.,.1.-.` ) A 1 > O                             ",
"                                  @ > , i K K K K K K I L K K I ^ ` $.>.,.,.1.>.#.' A 1 : o                             ",
"                                  @ 3 < p K K K J E E ^ I L K K I E ^ @.%.;.1.;.@.` F 1 > > .                           ",
"                                  @ = , i K K K J E ^ / Q K K K K P I ^ ' -.1.-.@._ A 1 3 :                             ",
"                                  @ < , i K K K J L ^ _ ^ I P K L L ^ ( ' %.1.;.#.@.G 6 > @ .                           ",
"                                . @ # , i K K K K L ^ _ _ ^ ^ ^ ^ ^ ' ;.>.,.,.,.;.,.Q 6 < @ .                           ",
"                                  X # # i K K K J E E _ _ _ _ ^ _ _ #.,.1.1.,.,.,.5._ r > @ .                           ",
"                                  @ 5 < i K K K K L ^ _ _ _ _ _ _ ` #.,.1.1.1.,.,.2./ r > :                             ",
"                                  @ > , i K K K K L ^ _ _ _ _ _ _ ` #.,.1.,.1.,.1.5./ 6 > @                             ",
"                                  @ 5 , i K K K K L ^ ^ _ _ _ ) ) _ $.,.1.,.1.,.1.2./ r 5 @                             ",
"                                  @ > < i K K K K K E ^ ^ ) _ _ ) / @.-.:.,.,.,.1.2./ 2 < @                             ",
"                                  @ > : i K K K K K K L Q ) _ _ _ ` ` ' #.;.,.1.1.2.^ 6 > O                             ",
"                                . & 5 < i K K K K K K K I ) _ _ _ ) ) ) ` %.,.1.1.2./ r < @ . .   . .   .               ",
"                            * - - w t t Z K K K K S K K L I E ^ Q Q Q ) ` %.1.1.1.2.@.A p y - - * s 7 * - * .           ",
"                            * s * e Z A S K K K K K K K K L K K I I E _ ' %.,.1.,.1.#.W W N 7 3 3 & 3 & 3 & %           ",
"                          . * 7 O i K K K K K K K K K J K K K K K K I ) ' %.,.1.1.1.-.( _ A < : : ; : : ; @ & +         ",
"                . @ @ & & & h u t C K J J K K K K K I E E I E I I I Q _ ` %.1.1.1.1.-./ ^ F t t n n n n n l 8 3 X .     ",
"                $ & 3 5 3 5 u M S K J K J K K K K L ^ ) ) ) ) ) ) ) ^ ) ' %.,.1.1.1.%.E K S S S P I Q W Q T y 8 & .     ",
"              . $ @ : : : > e A K K K K K K K K K K E ) ) _ ) _ _ _ _ _ ` -.,.1.1.1.%.I K K K K W _ _ _ ` P r , o .     ",
"            . @ = q t t t t a J K K K K K K K L I Q ^ ` ^ ^ ^ I I ^ ^ ) ` %.1.1.1.1.-.( ( ^ L K F A n n A n 1 : o .     ",
"            o > 6 a K K S K J J K K K K K K L I ` ) ` / ^ K K K K K I ) ' %.1.1.1.1.,.,.1.#.L J p 1 , < < , : : O .     ",
"          . O < < a K K J J K Z S K P K K K L ^ ) ) ^ ^ I K K K K K I ( ' %.,.,.>.,.,.,.1. .K C p 5 3 5 < 5 5 5 @ X     ",
"            O : < q i i i i i i i S I Q E I ^ ^ ) ) ^ ^ L K K K K L / %.%. . . .#.%.-.,.1.| a i w = @ @ & @ & @ @ .     ",
"            O : : : : : , : : : : M Q _ ` ) ) _ _ ^ I K K K K J K L ( 2.:.( K P ^ _ @.>.1./ # & - .                     ",
"          . @ 7 3 5 & > = & 5 @ 3 x W W Q ) ) ) ) Q K K K K K K S S ^ -. .^ K K E Q ' -.:./ r 8 8 - $ . .               ",
"            % 7 - - - - - - - - - h m n F I E E I L K K P I Q F i i a D K K K K I E / #.%.| W Z v s * * .               ",
"              . .   . . . .   . . @ 1 1 a K K K K K K K Q _ ` M , , , , 0 a K I L L E ` X.%.,.%.T & * s .               ",
"                                  + & : t K K K L L P K L P P p @ @ + + 5 e Z Z Z C S F H ` ,.;.) p k j = X .           ",
"                                  @ > < i K K Q I ) ^ ^ F n t 8 - * * - d g q q q q t t t A @.@.X._ R b g - $           ",
"                                  + 3 : t K L ^ ` ` ` ' A 2 , @ $ . . X - - , , , , , , , n _ ' %.2.$.D 5 + * .         ",
"                            . . X 6 6 6 a L L P P P I W n 1 : o         $ & o o ; o o o ; 9 G W _ %.} M < + * .         ",
"                            * * > e C A K ^ I n r 2 r 0 6 - X .         . . X X X . . . X = 0 q t e r 1 : @ & .         ",
"                            4 7 > i J J ^ ) W n > > : : % * .               .         . . @ < < < < < < : @ * .         ",
"                            - 5 : q C S K I H u @ @ > @ @ X                               . @ @ > @ # > @ @ $ .         ",
"                            = 7 O , 1 1 2 0 y 7 o     .                                     o   o       o .             ",
"                            * 7 , : > @ : @ 4 &                                                                         ",
"                            & - 5 - 7 5 = 5 f %                                                                         ",
"                            . X X X X X X X X .                                                                         ",
"                                                                                                                        "
};
