/* XPM */
static char *result[] = {
/* columns rows colors chars-per-pixel */
"60 60 224 2 ",
"   c #0E0805",
".  c #362210",
"X  c #312D28",
"o  c #621E00",
"O  c #6A3C29",
"+  c #4E2811",
"@  c #2E4D08",
"#  c #2E4C07",
"$  c #304E09",
"%  c #2F5307",
"&  c #2C5807",
"*  c #315407",
"=  c #335A07",
"-  c #315108",
";  c #385905",
":  c #177F03",
">  c #256804",
",  c #366404",
"<  c #396D04",
"1  c #366A06",
"2  c #3D7403",
"3  c #3D7A02",
"4  c #387606",
"5  c #2A7A06",
"6  c #3B592E",
"7  c #3E7139",
"8  c #425706",
"9  c #734501",
"0  c #457805",
"q  c #517E02",
"w  c #49743B",
"e  c #4C4F31",
"r  c #4D7859",
"t  c #4B6F52",
"y  c #973200",
"u  c #922E00",
"i  c #B23A09",
"p  c #C73F00",
"a  c #975D00",
"s  c #8D4A0D",
"d  c #BE4301",
"f  c #BB4705",
"g  c #AC4A19",
"h  c #B25006",
"j  c #8A7608",
"k  c #8D6700",
"l  c #AA6804",
"z  c #B56C0B",
"x  c #934F2A",
"c  c #B35628",
"v  c #C44600",
"b  c #CA4200",
"n  c #C44C00",
"m  c #D34500",
"M  c #D94C00",
"N  c #D54D06",
"B  c #D85701",
"V  c #C85915",
"C  c #D45810",
"Z  c #E54D00",
"A  c #EB5600",
"S  c #EC5A01",
"D  c #E45200",
"F  c #F45D00",
"G  c #F95D00",
"H  c #E25E10",
"J  c #D26001",
"K  c #EB6801",
"L  c #F66001",
"P  c #FB6201",
"I  c #F6670B",
"U  c #F46B12",
"Y  c #F66D15",
"T  c #F2711E",
"R  c #E47C12",
"E  c #D87836",
"W  c #DA6C33",
"Q  c #EC792D",
"!  c #F17523",
"~  c #F27C2A",
"^  c #ED7D31",
"/  c #943F40",
"(  c #8E404C",
")  c #C36B43",
"_  c #3B8900",
"`  c #3C9B00",
"'  c #3A9708",
"]  c #248A05",
"[  c #3DA400",
"{  c #3BAB00",
"}  c #2DB700",
"|  c #32B700",
" . c #31B900",
".. c #328B37",
"X. c #428601",
"o. c #438C01",
"O. c #40810C",
"+. c #459301",
"@. c #499600",
"#. c #459B00",
"$. c #499A00",
"%. c #42950C",
"&. c #5C9907",
"*. c #508E0D",
"=. c #42A400",
"-. c #49A202",
";. c #49A70B",
":. c #51A30B",
">. c #4BB607",
",. c #4CB50A",
"<. c #48B908",
"1. c #57B70A",
"2. c #55AE1B",
"3. c #69A406",
"4. c #69B80E",
"5. c #61B119",
"6. c #539434",
"7. c #6B8630",
"8. c #55B824",
"9. c #68A736",
"0. c #62B52D",
"q. c #1DCC00",
"w. c #1CD500",
"e. c #14DC00",
"r. c #00D702",
"t. c #23C800",
"y. c #23D905",
"u. c #3CC40B",
"i. c #09EA00",
"p. c #11E101",
"a. c #05F300",
"s. c #00FA00",
"d. c #22E607",
"f. c #26F917",
"g. c #1ED52B",
"h. c #32F926",
"j. c #2AFF24",
"k. c #4DC60D",
"l. c #45CD0D",
"z. c #4ECA0E",
"x. c #43C907",
"c. c #53C60E",
"v. c #4ECB12",
"b. c #42C612",
"n. c #52C812",
"m. c #58CD19",
"M. c #55C819",
"N. c #5AD11D",
"B. c #4FD415",
"V. c #5CC922",
"C. c #6EC62D",
"Z. c #6DDC2F",
"A. c #65D528",
"S. c #74CC35",
"D. c #6EDD31",
"F. c #69D032",
"G. c #73DC35",
"H. c #75E239",
"J. c #66F93E",
"K. c #698F56",
"L. c #6DB95F",
"P. c #748B62",
"I. c #46AA6C",
"U. c #54884B",
"Y. c #36D84D",
"T. c #43F646",
"R. c #7FE945",
"E. c #77FB4D",
"W. c #75C86A",
"Q. c #6ED14E",
"!. c #AE8B05",
"~. c #89A20F",
"^. c #9C9420",
"/. c #BBBB37",
"(. c #C38004",
"). c #C0962A",
"_. c #EC8239",
"`. c #F68B38",
"'. c #82C81A",
"]. c #BE9A62",
"[. c #D48F4E",
"{. c #E48947",
"}. c #ED944E",
"|. c #C79B6D",
" X c #C4A770",
".X c #F5AE67",
"XX c #FCBF78",
"oX c #F1AE6C",
"OX c #8CDA4D",
"+X c #BEC649",
"@X c #86EA4B",
"#X c #8CEE52",
"$X c #8CF354",
"%X c #86FE57",
"&X c #94F75C",
"*X c #8EED4E",
"=X c #91DB6A",
"-X c #89FB74",
";X c #C2E779",
":X c #5C4889",
">X c #556695",
",X c #504DA5",
"<X c #5E7EA0",
"1X c #538F83",
"2X c #71B79E",
"3X c #7B9EA8",
"4X c #6B90A5",
"5X c #748D8A",
"6X c #8C8A86",
"7X c #82ADA3",
"8X c #A2A8AA",
"9X c #CEAC99",
"0X c #9FDB80",
"qX c #B1F38F",
"wX c #AAF2B0",
"eX c #DFC690",
"rX c #EFD29D",
"tX c #B5C6C6",
"yX c #D8D4D0",
"uX c #E6D2C5",
"iX c #D5E5D2",
"pX c #D2EBC6",
"aX c #F3F4F6",
"sX c None",
/* pixels */
"sXsXsXsXsXsXsXsXsXsXsXsXsXsXsXsXsXsXsXsXsXsXsXsXsXsXsXsXsXsXsXsXsXsXsXsXsXsXsXsXsXsXsXsXsXsXsXsXsXsXsXsXsXsXsXsXsXsXsXsX",
"sXsXsXsXsXsXsXsXsXsXsXsXsXsXsXsXsXsXsXsXsXsXsXsXsXsXsXsXsXsXsXsXsXsXsXsXsXsXsXsXsXsXsXsXsXsXsXsXsXsXsXsXsXsXsXsXsXsXsXsX",
"sXsXsXsXsXsXsXsXsXsXsXsXsXsXsXsXsXsXsXsXsXsXsXsXsXsXsXsXsXsXsXsXsXsXsXsXsXsXsXsXsXsXsXsXsXsXsXsXsXsXsXsXsXsXsXsXsXsXsXsX",
"sXsXsXsXsXsXsXsXsXsXsXsXsXsXsXsXsXsXsXsXsXsXsXsXsXsXsXsXsXL L L L sXsXsXsXsXsXsXsXsXsXsXsXsXsXsXsXsXsXsXsXsXsXsXsXsXsXsX",
"sXsXsXsXsXsXsXsXsXsXsXsXsXsXsXsXsXsXsXsXsXsXsXsXsXsXsXL G G G G G F G U _.sXsXsXsXsXsXsXsXsXsXsXsXsXsXsXsXsXsXsXsXsXsXsX",
"sXsXsXsXsXsXsXsXsXsXsXsXsXsXsXsXsXsXsXsXsXsXsXsXsXsXU L I T ~ `.`._.~ ! ! ! T sXsXsXsXsXsXsXsXsXsXsXsXsXsXsXsXsXsXsXsXsX",
"sXsXsXsXsXsXsXsXsXsXsXsXsXsXsXsXsXsXsXsXsXsXsXsX_._.! U T _.}..XXXoX{.Q I L F S S sXsXsXsXsXsXsXsXsXsXsXsXsXsXsXsXsXsXsX",
"sXsXsXsXsXsXsXsXsXsXsXsXsXsXsXsXsXsXsXsXsXsXL L L U Q _.^ U I U U H N N S F D M b sXsXsXsXsXsXsXsXsXsXsXsXsXsXsXsXsXsXsX",
"sXsXsXsXsXsXsXsXsXsXsXsXsXsXsXsXsXsXsXsXsXsXG G G L U T Y I G Z b y o o y n sXsXsXsXsXsXsXsXsXsXsXsXsXsXsXsXsXsXsXsXsXsX",
"sXsXsXsXsXsXsXsXsXsXsXsXsXsXsXsXsXsXsXsXsXsXS A G L L G S M C W ) O     + sXsXsXsXsXsXsXsXsXsXsXsXsXsXsXsXsXsXsXsXsXsXsX",
"sXsXsXsXsXsXsXsXsXsXsXsXsXsXsXsXsXsXsXsXsXsXp M S L P G v y x 9XuX6XX . x {.sXsXsXsXsXsXsXsXsXsXsXsXsXsXsXsXsXsXsXsXsXsX",
"sXsXsXsXsXsXsXsXsXsXsXsXsXsXsXsXsXsXsXsXsXsXp M S G P L v u x |.rXeX X].|.sXsXsXsXsXsXsXsXsXsXsXsXsXsXsXsXsXsXsXsXsXsXsX",
"sXsXsXsXsXsXsXsXsXsXsXsXsXsXsXsXsXsXsXsXsXsXb M A F M i i u g [.oXXXXX.X{.sXsXsXsXsXsXsXsXsXsXsXsXsXsXsXsXsXsXsXsXsXsXsX",
"sXsXsXsXsXsXsXsXsXsXsXsXsXsXsXsXsXsXsXsXsXsXb M A H V x x g V W {.{.[.E V sXsXsXsXsXsXsXsXsXsXsXsXsXsXsXsXsXsXsXsXsXsXsX",
"sXsXsXsXsXsXsXsXsXsXsXsXsXsXsXsXsXsXsXP F M m m A T oXuXyX8XsXc V z sXsXsXsXsXsXsXsXsXsXsXsXsXsXsXsXsXsXsXsXsXsXsXsXsXsX",
"sXsXsXsXsXsXsXsXsXsXsXsXsXsXsXsXsXsXsXP F Z m V ).+X;XqXqXQ.2.5.3.1.c.sXsXsXsXsXsXsXsXsXsXsXsXsXsXsXsXsXsXsXsXsXsXsXsXsX",
"sXsXsXsXsXsXsXsXsXsXsXsXsXsXsXsXsXsXsXG L J l ^.OX&X$XR.Z.m.z.z.n.N.A.A.5.sXsXsXsXsXsXsXsXsXsXsXsXsXsXsXsXsXsXsXsXsXsXsX",
"sXsXsXsXsXsXsXsXsXsXsXsXsXsXsXsXsXsXsXG K !.4.A.@X*XD.m.z.z.z.n.m.H.*XR.5.+.sXsXsXsXsXsXsXsXsXsXsXsXsXsXsXsXsXsXsXsXsXsX",
"sXsXsXsXsXsXsXsXsXsXsXsXsXsXsXsXsXsXsXG K !.4.v.N.A.m.n.k.n.N.H.@XS.0.*.4 , 3 +.=.sXsXsXsXsXsXsXsXsXsXsXsXsXsXsXsXsXsXsX",
"sXsXsXsXsXsXsXsXsXsXsXsXsXsXsXsXsXsXsXsX(.~.c.z.z.<.;.' ;.,.m.A.C.2.X., - * 2 +.{ w.sXsXsXsXsXsXsXsXsXsXsXsXsXsXsXsXsXsX",
"sXsXsXsXsXsXsXsXsXsXsXsXsXsXsXsXsXsXsXsXsXv.k.n.v.2.4 = 4 ;.,.-.X.1 * # @ = 2 +. .p.s.sXsXsXsXsXsXsXsXsXsXsXsXsXsXsXsXsX",
"sXsXsXsXsXsXsXsXsXsXsXsXsXsXsXsXsXsXsXsXsXsXk.n.sXsX, & < +.o.4 = $ - - @ = 2 +.| p.s.sXsXsXsXsXsXsXsXsXsXsXsXsXsXsXsXsX",
"sXsXsXsXsXsXsXsXsXsXsXsXsXsXsXsXsXsXsXz.z.k.sXsXh h 9 = 4 o.X., # 6 r t 6 * < +.| p.s.sXsXsXsXsXsXsXsXsXsXsXsXsXsXsXsXsX",
"sXsXsXsXsXsXsXsXsXsXsXsXsXsXsXsXsXsX=XS.n.x.sXsXd f y e 7 6.6.K.P.5X4X1X..] ' =. .p.s.sXsXsXsXsXsXsXsXsXsXsXsXsXsXsXsXsX",
"sXsXsXsXsXsXsXsXsXsXsXsXsXsXsXsXsXaXpX=Xc.<.&.k h i / :X>X<X3XtXiXtX4XI.g.p.} ' } e.a.sXsXsXsXsXsXsXsXsXsXsXsXsXsXsXsXsX",
"sXsXsXsXsXsXsXsXsXsXsXsXsXsXsXsXsXsXsXsX&.k h v b i ( :X,X,X>XP.9.9.6.;.b.x.' 1 4 ` | w.a.sXsXsXsXsXsXsXsXsXsXsXsXsXsXsX",
"sXsXsXsXsXsXsXsXsXsXsXsXsXsXsXsXsXsXsXsX&.a v d l j 7.U.U.t t %.+._ 2 %.,.,.O.= ; X.{ w.a.sXsXsXsXsXsXsXsXsXsXsXsXsXsXsX",
"sXsXsXsXsXsXsXsXsXsXsXsXsXsXsXsXsXsX=.' q a v z ~.N.B.n.,.-.$.#.o.4 = < ;.,.' 5 5 o.{ w.a.sXsXsXsXsXsXsXsXsXsXsXsXsXsXsX",
"sXsXsXsXsXsXsXsXsXsXsXsXsXsXsXsXsX$._ 1 8 s J R /.R.Z.n.,.#.@.#.+.4 = < ;.l.y.e.q.[ { q.a.sXsXsXsXsXsXsXsXsXsXsXsXsXsXsX",
"sXsXsXsXsXsXsXsXsXsXsXsXsXsXsXsXsX$.X., # 0 3.'.*X$XZ.n.,.=.o.2 < < 3 +.,.l.d.a.w.{ [ t.a.sXsXsXsXsXsXsXsXsXsXsXsXsXsXsX",
"sXsXsXsXsXsXsXsXsXsXsXsXsXsXsXsX$.$.X., & ] r.j.E.*XZ.n.,.-.o., = < @.-.,.B.d.a.p. .[ sXsXsXsXsXsXsXsXsXsXsXsXsXsXsXsXsX",
"sXsXsXsXsXsXsXsXsXsXsXsXsXsXsX#.$.$.X.1 & > sXsX%X#XD.n.>.-.X., * < +.;.,.l.d.a.s.sXsXsXsXsXsXsXsXsXsXsXsXsXsXsXsXsXsXsX",
"sXsXsXsXsXsXsXsXsXsXsXsXsXsXsX$.$.$.X.1 * > sXsX%X*XD.n.,.-.X.< ; < o.$.$.=.y.a.s.sXsXsXsXsXsXsXsXsXsXsXsXsXsXsXsXsXsXsX",
"sXsXsXsXsXsXsXsXsXsXsXsXsXsXsX@.X.3 < , > sXsXsX%X#XD.n.>.-.X., * < o.$.+.[ t.a.s.sXsXsXsXsXsXsXsXsXsXsXsXsXsXsXsXsXsXsX",
"sXsXsXsXsXsXsXsXsXsXsXsXsXsXsX@.3 = - sXsXsXsXsXE.$XD.n.>.-.X.1 ; 2 o.$.$.=.t.i.sXsXsXsXsXsXsXsXsXsXsXsXsXsXsXsXsXsXsXsX",
"sXsXsXsXsXsXsXsXsXsXsXsXsXsXsX+.3 = @ sXsXsXsXh.E.#XD.n.>.-.X., * < o.$.$.#. .sXsXsXsXsXsXsXsXsXsXsXsXsXsXsXsXsXsXsXsXsX",
"sXsXsXsXsXsXsXsXsXsXsXsXsXsXsX+.4 = $ sXsXsXs.f.E.R.F.n.,.-.X., * 2 o.$.$.#.sXsXsXsXsXsXsXsXsXsXsXsXsXsXsXsXsXsXsXsXsXsX",
"sXsXsXsXsXsXsXsXsXsXsXsXsXsXsXsX< - $ sXsXsXs.h.-XqX#XV.>.-.X., = 1 o.$.#.sXsXsXsXsXsXsXsXsXsXsXsXsXsXsXsXsXsXsXsXsXsXsX",
"sXsXsXsXsXsXsXsXsXsXsXsXsXsXsXsXsX- $ sXsXsXs.T.wXiX=XV.<.=.o., * , o.sXsXsXsXsXsXsXsXsXsXsXsXsXsXsXsXsXsXsXsXsXsXsXsXsX",
"sXsXsXsXsXsXsXsXsXsXsXsXsXsXsXsXsXsXsXsXsXsXsXY.2X7XL.V.x.sXsX> * sXsXsXsXsXsXsXsXsXsXsXsXsXsXsXsXsXsXsXsXsXsXsXsXsXsXsX",
"sXsXsXsXsXsXsXsXsXsXsXsXsXsXsXsXsXsXsXsXsXsXsXsXW.W.0.2.<.sXsX& % sXsXsXsXsXsXsXsXsXsXsXsXsXsXsXsXsXsXsXsXsXsXsXsXsXsXsX",
"sXsXsXsXsXsXsXsXsXsXsXsXsXsXsXsXsXsXsXsXsXsXsXD.$X#XC.$.` sXsX& % - sXsXsXsXsXsXsXsXsXsXsXsXsXsXsXsXsXsXsXsXsXsXsXsXsXsX",
"sXsXsXsXsXsXsXsXsXsXsXsXsXsXsXsXsXsXsXsXsXsXsXR.&X#XS.-.sXsXsXsX@ sXsXsXsXsXsXsXsXsXsXsXsXsXsXsXsXsXsXsXsXsXsXsXsXsXsXsX",
"sXsXsXsXsXsXsXsXsXsXsXsXsXsXsXsXsXsXsXsXsXsXsXsX&X#XS.:.sXsXsXsXsXsXsXsXsXsXsXsXsXsXsXsXsXsXsXsXsXsXsXsXsXsXsXsXsXsXsXsX",
"sXsXsXsXsXsXsXsXsXsXsXsXsXsXsXsXsXsXsXsXsXsXsXsX&X&XS.&.sXsXsXsXsXsXsXsXsXsXsXsXsXsXsXsXsXsXsXsXsXsXsXsXsXsXsXsXsXsXsXsX",
"sXsXsXsXsXsXsXsXsXsXsXsXsXsXsXsXsXsXsXsXsXsXsXsX&X#XS.:.sXsXsXsXsXsXsXsXsXsXsXsXsXsXsXsXsXsXsXsXsXsXsXsXsXsXsXsXsXsXsXsX",
"sXsXsXsXsXsXsXsXsXsXsXsXsXsXsXsXsXsXsXsXsXsXsXsXsXA.sXsXsXsXsXsXsXsXsXsXsXsXsXsXsXsXsXsXsXsXsXsXsXsXsXsXsXsXsXsXsXsXsXsX",
"sXsXsXsXsXsXsXsXsXsXsXsXsXsXsXsXsXsXsXsXsXsXsXsXsXsXsXsXsXsXsXsXsXsXsXsXsXsXsXsXsXsXsXsXsXsXsXsXsXsXsXsXsXsXsXsXsXsXsXsX",
"sXsXsXsXsXsXsXsXsXsXsXsXsXsXsXsXsXsXsXsXsXsXsXsXsXsXsXsXsXsXsXsX$ @ - - sXsXsXsXsXsXsXsXsXsXsXsXsXsXsXsXsXsXsXsXsXsXsXsX",
"sXsXsXsXsXsXsXsXsXsXsXsXsXsXsXsXsXsXsXsXsXsXsXsXsXsXsXsXsXsXsXsX% - $ - - % $ - sXsXsXsXsXsXsXsXsXsXsXsXsXsXsXsXsXsXsXsX",
"sXsXsXsXsXsXsXsXsXsXsXsXsXsXsXsXsXsXsXsXsXsXsXsXsXsXsXsXsXsXsXsXsXsXsXsXsXsXsXsXsXsXsXsXsXsXsXsXsXsXsXsXsXsXsXsXsXsXsXsX",
"sXsXsXsXsXsXsXsXsXsXsXsXsXsXsXsXsXsXsXsXsXsXsXsXsXsXsXsXsXsXsXsXsXsXsXsXsXsXsXsXsXsXsXsXsXsXsXsXsXsXsXsXsXsXsXsXsXsXsXsX",
"sXsXsXsXsXsXsXsXsXsXsXsXsXsXsXsXsXsXsXsXsXsXsXsX$.@.sXsXsXsXsXsXsXsXsXsXsXsXsXsXsXsXsXsXsXsXsXsXsXsXsXsXsXsXsXsXsXsXsXsX",
"sXsXsXsXsXsXsXsXsXsXsXsXsXsXsXsXsXsXsXsXsXsX$.$.#.@.sXsXsXsXsXsXsXsXsXsXsXsXsXsXsXsXsXsXsXsXsXsXsXsXsXsXsXsXsXsXsXsXsXsX",
"sXsXsXsXsXsXsXsXsXsXsXsXsXsXsXsXsXsXsXsXsXsX$.-.;.sXsXsXsXsXsXsXsXsXsXsXsXsXsXsXsXsXsXsXsXsXsXsXsXsXsXsXsXsXsXsXsXsXsXsX",
"sXsXsXsXsXsXsXsXsXsXsXsXsXsXsXsXsXsXsXsXsXsX3 o.-.,.sXsXsXsXsXsXsXsXsXsXsXsXsXsXsXsXsXsXsXsXsXsXsXsXsXsXsXsXsXsXsXsXsXsX",
"sXsXsXsXsXsXsXsXsXsXsXsXsXsXsXsXsXsXsXsXsXsX* 1 X.@.@.+.+.sXsXsXsXsXsXsXsXsXsXsXsXsXsXsXsXsXsXsXsXsXsXsXsXsXsXsXsXsXsXsX",
"sXsXsXsXsXsXsXsXsXsXsXsXsXsXsXsXsXsXsXsXsXsXsX= = , , , , sXsXsXsXsXsXsXsXsXsXsXsXsXsXsXsXsXsXsXsXsXsXsXsXsXsXsXsXsXsXsX",
"sXsXsXsXsXsXsXsXsXsXsXsXsXsXsXsXsXsXsXsXsXsXsXsXsX# # # sXsXsXsXsXsXsXsXsXsXsXsXsXsXsXsXsXsXsXsXsXsXsXsXsXsXsXsXsXsXsXsX",
"sXsXsXsXsXsXsXsXsXsXsXsXsXsXsXsXsXsXsXsXsXsXsXsXsXsXsXsXsXsXsXsXsXsXsXsXsXsXsXsXsXsXsXsXsXsXsXsXsXsXsXsXsXsXsXsXsXsXsXsX"
};
